<?xml version="1.0" encoding="utf-8"?>
<!-- Generator: Adobe Illustrator 22.0.1, SVG Export Plug-In . SVG Version: 6.00 Build 0)  -->
<svg version="1.1" id="Layer_1" xmlns="http://www.w3.org/2000/svg" xmlns:xlink="http://www.w3.org/1999/xlink" x="0px" y="0px"
	 viewBox="0 0 39.9 69.9" style="enable-background:new 0 0 39.9 69.9;" xml:space="preserve">
<style type="text/css">
	.st0{clip-path:url(#SVGID_2_);}
	.st1{fill:#2C5EE6;}
</style>
<g>
	<g>
		<g>
			<defs>
				<rect id="SVGID_1_" y="-1" width="39.9" height="69.9"/>
			</defs>
			<clipPath id="SVGID_2_">
				<use xlink:href="#SVGID_1_"  style="overflow:visible;"/>
			</clipPath>
			<g class="st0">
				<path class="st1" d="M14.2,58.7c-0.2-0.4-0.4-0.7-0.6-1c0.5-0.3,1.1-0.6,1.6-0.9c3.7-2.1,7.3-4.3,11-6.3c0.8-0.5,1.2-1,1.2-2
					c-0.1-4.4,0-8.9,0-13.3c0-0.4,0-0.8,0-1.3c0.4,0,0.7,0,1.1,0c0,0.1,0.1,0.3,0.1,0.4c0,4.6,0,9.2,0,13.9c0,2-0.3,1.4,1.4,2.4
					c3.8,2.2,7.5,4.4,11.3,6.5c0.4,0.2,0.7,0.4,1.1,0.6c-0.2,0.3-0.3,0.6-0.5,1c-4.6-2.6-9.1-5.3-13.8-8
					C23.4,53.4,18.8,56.1,14.2,58.7z M28.5,50.1c-0.3-0.2-0.4-0.4-0.6-0.4s-0.3,0.3-0.4,0.4c0.2,0.1,0.3,0.4,0.5,0.4
					C28.1,50.5,28.3,50.3,28.5,50.1z"/>
				<path class="st1" d="M-25.8,58.7c-0.2-0.4-0.4-0.7-0.6-1c0.5-0.3,1.1-0.6,1.6-0.9c3.7-2.1,7.3-4.3,11-6.3c0.8-0.5,1.2-1,1.2-2
					c-0.1-4.4,0-8.9,0-13.3c0-0.4,0-0.8,0-1.3c0.4,0,0.7,0,1.1,0c0,0.1,0.1,0.3,0.1,0.4c0,4.6,0,9.2,0,13.9c0,2-0.3,1.4,1.4,2.4
					c3.7,2.2,7.5,4.4,11.3,6.5c0.4,0.2,0.7,0.4,1.1,0.6c-0.2,0.3-0.3,0.6-0.5,1c-4.6-2.6-9.1-5.3-13.8-8
					C-16.6,53.4-21.1,56.1-25.8,58.7z M-11.5,50.1c-0.3-0.2-0.4-0.4-0.6-0.4c-0.2,0-0.3,0.3-0.4,0.4c0.2,0.1,0.3,0.4,0.5,0.4
					S-11.7,50.3-11.5,50.1z"/>
				<path class="st1" d="M28,3.8c4.6-2.7,9.2-5.3,13.8-7.9c0.2,0.3,0.4,0.6,0.6,1c-0.4,0.2-0.8,0.5-1.2,0.7
					c-3.9,2.3-7.8,4.5-11.7,6.7c-0.7,0.4-0.9,0.8-0.9,1.6c0,4.5,0,9,0,13.5c0,0.4,0,0.8,0,1.3c-0.4,0-0.7,0-1.2,0c0-0.5,0-0.9,0-1.3
					c0-4.5,0-8.9,0-13.4c0-0.8-0.3-1.3-1-1.7c-4-2.3-7.9-4.6-11.9-6.9c-0.3-0.2-0.6-0.3-0.9-0.5c0.2-0.3,0.4-0.6,0.6-1
					C18.8-1.5,23.3,1.2,28,3.8z M28,5.1c0.2-0.3,0.4-0.4,0.3-0.6c0-0.2-0.3-0.3-0.4-0.4c-0.1,0.2-0.4,0.3-0.4,0.5
					C27.6,4.7,27.8,4.8,28,5.1z"/>
				<path class="st1" d="M7.6-0.3c0.4,0,0.7,0,1.1,0c0,0.5,0,0.9,0,1.4c0,4.4,0,8.8,0,13.2c0,1,0.3,1.5,1.2,2
					c3.9,2.2,7.8,4.5,11.7,6.7c0.3,0.2,0.6,0.3,0.9,0.5c-0.2,0.3-0.3,0.6-0.5,0.9c-0.3-0.2-0.7-0.4-1-0.6c-3.9-2.3-7.8-4.5-11.7-6.8
					c-0.8-0.5-1.3-0.4-2.1,0c-3.8,2.3-7.7,4.5-11.6,6.7c-0.3,0.2-0.6,0.4-1,0.6C-5.6,24-5.8,23.7-6,23.4c0.4-0.2,0.7-0.4,1-0.6
					c3.8-2.2,7.7-4.5,11.5-6.6c0.9-0.5,1.2-1,1.2-2.1c-0.1-4.4,0-8.9,0-13.3C7.6,0.5,7.6,0.1,7.6-0.3z M8.2,16.5
					c0.2-0.2,0.4-0.4,0.4-0.5s-0.2-0.3-0.4-0.4c-0.1,0.1-0.4,0.2-0.4,0.4C7.8,16,8,16.2,8.2,16.5z"/>
				<path class="st1" d="M8.2,38c4.6-2.7,9.2-5.3,13.7-7.9c0.2,0.4,0.4,0.6,0.6,1c-0.3,0.2-0.6,0.4-0.9,0.6
					c-3.9,2.3-7.9,4.6-11.8,6.8c-0.7,0.4-1,0.9-1,1.7c0,4.4,0,8.9,0,13.3c0,0.4,0,0.9,0,1.4c-0.4,0-0.7,0.1-1.1,0.1
					c0-0.2-0.1-0.4-0.1-0.6c0-4.4,0-8.7,0-13.1c0-0.3,0-0.6,0-0.9c0.1-1-0.2-1.6-1.2-2.1C2.7,36.2-1,34.1-4.6,32
					c-0.5-0.3-1-0.6-1.6-0.9c0.2-0.3,0.4-0.6,0.6-1C-1,32.7,3.6,35.4,8.2,38z M7.7,38.7c0.2,0.2,0.4,0.4,0.5,0.4s0.4-0.2,0.4-0.4
					c0-0.1-0.2-0.4-0.4-0.4C8.1,38.3,7.9,38.5,7.7,38.7z"/>
				<path class="st1" d="M47.1-0.3c0.3,0,0.6,0,1,0c0,0.5,0,0.9,0,1.3c0,4.4,0,8.9,0,13.3c0,1,0.3,1.5,1.2,2
					c3.9,2.2,7.8,4.5,11.6,6.7c0.3,0.2,0.6,0.4,1,0.6c-0.2,0.3-0.3,0.6-0.6,1c-4.5-2.6-9.1-5.2-13.7-7.9c-4.5,2.6-9.1,5.3-13.7,7.9
					c-0.2-0.3-0.4-0.6-0.6-0.9c0.3-0.2,0.7-0.4,1-0.6c3.9-2.3,7.9-4.6,11.8-6.8c0.7-0.4,1-0.8,1-1.7c0-4.5,0-9,0-13.5
					C47.1,0.5,47.1,0.1,47.1-0.3z M47.5,16.4c0.2-0.2,0.4-0.3,0.5-0.4c0-0.1-0.1-0.3-0.1-0.5c-0.2,0.1-0.4,0.1-0.4,0.2
					C47.3,15.9,47.4,16.1,47.5,16.4z"/>
				<path class="st1" d="M33.4,31.1c0.2-0.3,0.4-0.6,0.6-1c4.6,2.6,9.1,5.3,13.7,7.9c4.6-2.6,9.1-5.2,13.7-7.9
					c0.2,0.3,0.4,0.6,0.6,0.9c-0.3,0.2-0.7,0.4-1,0.6c-4,2.4-8,4.7-12,6.9c-0.7,0.4-0.9,0.8-0.9,1.6c0,4.5,0,8.9,0,13.4
					c0,0.4,0,0.9,0,1.4c-0.2,0-0.3,0-0.5,0c-0.1,0-0.3,0-0.5,0c0-0.5,0-0.9,0-1.3c0-4.5,0-9,0-13.5c0-0.8-0.2-1.3-0.9-1.7
					c-4-2.2-7.9-4.5-11.8-6.8C34,31.5,33.7,31.3,33.4,31.1z M47.7,39.2c0.2-0.2,0.3-0.4,0.3-0.5c0-0.2-0.2-0.3-0.4-0.4
					c-0.1,0.1-0.3,0.3-0.3,0.4C47.3,38.9,47.5,39,47.7,39.2z"/>
			</g>
		</g>
	</g>
</g>
<path class="st1" d="M2.1,66.1c0.2,0.4,0.4,0.7,0.6,1c-0.5,0.3-1.1,0.6-1.6,0.9c-3.7,2.1-7.3,4.3-11,6.3c-0.8,0.5-1.2,1-1.2,2
	c0.1,4.4,0,8.9,0,13.3c0,0.4,0,0.8,0,1.3c-0.4,0-0.7,0-1.1,0c0-0.1-0.1-0.3-0.1-0.4c0-4.6,0-9.2,0-13.9c0-2,0.3-1.4-1.4-2.4
	c-3.8-2.2-7.5-4.4-11.3-6.5c-0.4-0.2-0.7-0.4-1.1-0.6c0.2-0.3,0.3-0.6,0.5-1c4.6,2.6,9.1,5.3,13.8,8C-7.1,71.4-2.5,68.7,2.1,66.1z
	 M-12.2,74.7c0.3,0.2,0.4,0.4,0.6,0.4c0.2,0,0.3-0.3,0.4-0.4c-0.2-0.1-0.3-0.4-0.5-0.4C-11.8,74.3-11.9,74.5-12.2,74.7z"/>
<path class="st1" d="M27.9,74c4.6-2.7,9.2-5.3,13.8-7.9c0.2,0.3,0.4,0.6,0.6,1c-0.4,0.2-0.8,0.5-1.2,0.7c-3.9,2.3-7.8,4.5-11.7,6.7
	c-0.7,0.4-0.9,0.8-0.9,1.6c0,4.5,0,9,0,13.5c0,0.4,0,0.8,0,1.3c-0.4,0-0.7,0-1.2,0c0-0.5,0-0.9,0-1.3c0-4.5,0-8.9,0-13.4
	c0-0.8-0.3-1.3-1-1.7c-4-2.3-7.9-4.6-11.9-6.9c-0.3-0.2-0.6-0.3-0.9-0.5c0.2-0.3,0.4-0.6,0.6-1C18.7,68.7,23.2,71.3,27.9,74z
	 M27.9,75.2c0.2-0.3,0.4-0.4,0.3-0.6c0-0.2-0.3-0.3-0.4-0.4c-0.1,0.2-0.4,0.3-0.4,0.5C27.5,74.8,27.7,75,27.9,75.2z"/>
</svg>
