<?xml version="1.0" encoding="utf-8"?>
<svg version="1.1" id="Capa_1" xmlns="http://www.w3.org/2000/svg" xmlns:xlink="http://www.w3.org/1999/xlink" x="0px" y="0px"
	 viewBox="0 0 31.5 31.5" style="enable-background:new 0 0 31.5 31.5;" xml:space="preserve">
	<path fill="#FFF" d="M13.9,1L13.9,1c-1,1-0.9,2.6,0.1,3.5l9,8.7H2.6c-1.4,0-2.5,1.1-2.5,2.5s1.1,2.5,2.5,2.5h20.3l-9,8.7c-1,1-1,2.5-0.1,3.5
	c1,1,2.5,1,3.5,0.1l13.4-13c0.5-0.5,0.8-1.1,0.8-1.8s-0.3-1.3-0.8-1.8l-13.4-13C16.4,0,14.8,0,13.9,1z"/>
</svg>
