<?xml version="1.0" encoding="UTF-8"?>
<svg width="120px" height="120px" viewBox="0 0 120 120" version="1.1" xmlns="http://www.w3.org/2000/svg" xmlns:xlink="http://www.w3.org/1999/xlink">
    <!-- Generator: Sketch 52.4 (67378) - http://www.bohemiancoding.com/sketch -->
    <title>cityscape</title>
    <desc>Created with Sketch.</desc>
    <g id="personal" stroke="none" stroke-width="1" fill="none" fill-rule="evenodd">
        <g id="personal-summary" transform="translate(-930.000000, -1069.000000)">
            <g id="items" transform="translate(388.000000, 813.000000)">
                <g id="item-copy-8" transform="translate(277.000000, 0.000000)">
                    <g id="cityscape" transform="translate(265.000000, 256.000000)">
                        <path d="M60,0 C93.1373437,0 120,26.8626563 120,60 C120,93.1373437 93.1373437,120 60,120 C26.8626563,120 0,93.1373437 0,60 C0,26.8626563 26.8626563,0 60,0 Z" id="Path" fill="#B1E9F1"></path>
                        <g id="Group" transform="translate(0.000000, 33.281250)">
                            <g transform="translate(99.609375, 14.531250)" fill="#75A0A5" id="Path">
                                <polygon points="2.82820313 1.62726563 0.144375 1.62726563 0.144375 0.076875 2.82820313 0.076875"></polygon>
                                <polygon points="5.9896875 1.62726563 3.30585938 1.62726563 3.30585938 0.076875 5.9896875 0.076875"></polygon>
                                <polygon points="2.82820313 4.43578125 0.144375 4.43578125 0.144375 2.8846875 2.82820313 2.8846875"></polygon>
                                <polygon points="5.9896875 4.43578125 3.30585938 4.43578125 3.30585938 2.8846875 5.9896875 2.8846875"></polygon>
                            </g>
                            <polygon id="Path" fill="#72EBF9" points="105.856406 41.6102344 94.6028906 41.6102344 94.6028906 39.7607813 105.856406 39.7607813"></polygon>
                            <path d="M106.572422,15.4396875 L106.572422,13.2295313 L106.572422,10.8691406 L103.751719,10.8691406 L103.751719,5.18109375 L99.7434375,5.18109375 L99.7434375,0.04921875 L98.3310937,0.04921875 L98.3310937,5.18109375 L94.3235156,5.18109375 L94.3235156,10.8691406 L91.501875,10.8691406 L91.501875,13.2295313 L91.501875,15.7103906 L91.501875,18.9890625 L91.501875,20.9519531 L91.501875,21.4701563 L91.501875,23.3034375 L88.2077344,19.1315625 L79.0429688,19.1315625 L75.8353125,23.3528906 L75.8353125,46.231875 L91.5021094,46.231875 L91.5021094,46.2780469 L106.483828,46.2780469 L106.483828,46.6699219 L116.59875,46.6699219 C118.798359,40.426875 120,33.7141406 120,26.71875 C120,21.8554688 119.416875,17.1288281 118.324922,12.6009375 L114.336562,9.6009375 L106.572422,15.4396875 Z" id="Path" fill="#424242"></path>
                            <polygon id="Path" fill="#FFFFFF" points="28.2916406 47.2117969 12.5864062 47.2117969 12.5864062 18.6614063 15.7940625 13.3914844 24.958125 13.3914844 28.2916406 18.6614063"></polygon>
                            <path d="M21.8085938,29.6472656 L19.7132812,29.6472656 L19.7132812,25.0446094 L21.8085938,25.0446094 L21.8085938,29.6472656 Z M18.5416406,23.8750781 L16.4463281,23.8750781 L16.4463281,19.2714844 L18.5416406,19.2714844 L18.5416406,23.8750781 Z M21.8085938,23.8750781 L19.7132812,23.8750781 L19.7132812,19.2714844 L21.8085938,19.2714844 L21.8085938,23.8750781 Z M25.0757812,23.8750781 L22.9792969,23.8750781 L22.9792969,19.2714844 L25.0757812,19.2714844 L25.0757812,23.8750781 Z M25.0757812,29.6472656 L22.9792969,29.6472656 L22.9792969,25.0446094 L25.0757812,25.0446094 L25.0757812,29.6472656 Z M25.0757812,35.4213281 L22.9792969,35.4213281 L22.9792969,30.8172656 L25.0757812,30.8172656 L25.0757812,35.4213281 Z M21.8085938,35.4213281 L19.7132812,35.4213281 L19.7132812,30.8172656 L21.8085938,30.8172656 L21.8085938,35.4213281 Z M18.5416406,29.6472656 L16.4463281,29.6472656 L16.4463281,25.0446094 L18.5416406,25.0446094 L18.5416406,29.6472656 Z M18.5416406,35.4213281 L16.4463281,35.4213281 L16.4463281,30.8172656 L18.5416406,30.8172656 L18.5416406,35.4213281 Z" id="Shape" fill="#8FC9F7" fill-rule="nonzero"></path>
                            <polygon id="Path" fill="#FF7042" points="44.3041406 46.7538281 28.5982031 46.7538281 28.5982031 19.7920312 36.4509375 17.1555469 44.3041406 19.7920312"></polygon>
                            <path d="M32.8985156,36.1094531 C32.8985156,36.0998438 32.8996875,36.0907031 32.8996875,36.0815625 C32.8996875,35.4494531 32.3847656,34.9375781 31.7486719,34.9375781 C31.1125781,34.9375781 30.5976562,35.4496875 30.5976562,36.0815625 C30.5976562,36.0907031 30.5992969,36.0998437 30.5992969,36.1094531 L30.5976562,36.1094531 L30.5976562,39.7450781 L32.9013281,39.7450781 L32.9013281,36.1094531 L32.8985156,36.1094531 Z M32.8985156,30.1938281 C32.8985156,30.1839844 32.8996875,30.1755469 32.8996875,30.1654688 C32.8996875,29.5333594 32.3847656,29.0219531 31.7486719,29.0219531 C31.1125781,29.0219531 30.5976562,29.5335937 30.5976562,30.1654688 C30.5976562,30.1757812 30.5992969,30.1842187 30.5992969,30.1938281 L30.5976562,30.1938281 L30.5976562,33.82875 L32.9013281,33.82875 L32.9013281,30.1938281 L32.8985156,30.1938281 Z M36.03375,30.1938281 C36.03375,30.1839844 36.0349219,30.1755469 36.0349219,30.1654688 C36.0349219,29.5333594 35.52,29.0219531 34.8839062,29.0219531 C34.2478125,29.0219531 33.7328906,29.5335937 33.7328906,30.1654688 C33.7328906,30.1757812 33.7333594,30.1842187 33.7340625,30.1938281 L33.7324219,30.1938281 L33.7324219,33.82875 L36.035625,33.82875 L36.035625,30.1938281 L36.03375,30.1938281 Z M39.1685156,30.1938281 C39.1685156,30.1839844 39.1701563,30.1755469 39.1701563,30.1654688 C39.1701563,29.5333594 38.6542969,29.0219531 38.0182031,29.0219531 C37.3830469,29.0219531 36.8671875,29.5335937 36.8671875,30.1654688 C36.8671875,30.1757812 36.8688281,30.1842187 36.8692969,30.1938281 L36.8667188,30.1938281 L36.8667188,33.82875 L39.1703906,33.82875 L39.1703906,30.1938281 L39.1685156,30.1938281 Z M42.3039844,30.1938281 C42.3039844,30.1839844 42.3051563,30.1755469 42.3051563,30.1654688 C42.3051563,29.5333594 41.7892969,29.0219531 41.1534375,29.0219531 C40.5173438,29.0219531 40.0024219,29.5335937 40.0024219,30.1654688 C40.0024219,30.1757812 40.003125,30.1842187 40.003125,30.1938281 L40.0019531,30.1938281 L40.0019531,33.82875 L42.305625,33.82875 L42.305625,30.1938281 L42.3039844,30.1938281 Z M42.3039844,36.1094531 C42.3039844,36.0998438 42.3051563,36.0907031 42.3051563,36.0815625 C42.3051563,35.4494531 41.7892969,34.9375781 41.1534375,34.9375781 C40.5173438,34.9375781 40.0024219,35.4496875 40.0024219,36.0815625 C40.0024219,36.0907031 40.003125,36.0998437 40.003125,36.1094531 L40.0019531,36.1094531 L40.0019531,39.7450781 L42.305625,39.7450781 L42.305625,36.1094531 L42.3039844,36.1094531 Z M39.1685156,36.1094531 C39.1685156,36.0998438 39.1701563,36.0907031 39.1701563,36.0815625 C39.1701563,35.4494531 38.6542969,34.9375781 38.0182031,34.9375781 C37.3830469,34.9375781 36.8671875,35.4496875 36.8671875,36.0815625 C36.8671875,36.0907031 36.8688281,36.0998437 36.8692969,36.1094531 L36.8667188,36.1094531 L36.8667188,39.7450781 L39.1703906,39.7450781 L39.1703906,36.1094531 L39.1685156,36.1094531 Z M36.03375,36.1094531 C36.03375,36.0998438 36.0349219,36.0907031 36.0349219,36.0815625 C36.0349219,35.4494531 35.52,34.9375781 34.8839062,34.9375781 C34.2478125,34.9375781 33.7328906,35.4496875 33.7328906,36.0815625 C33.7328906,36.0907031 33.7333594,36.0998437 33.7340625,36.1094531 L33.7324219,36.1094531 L33.7324219,39.7450781 L36.035625,39.7450781 L36.035625,36.1094531 L36.03375,36.1094531 Z" id="Shape" fill="#FFFFFF" fill-rule="nonzero"></path>
                            <polygon id="Path" fill="#DFDFDF" points="91.3120313 46.7650781 75.6053906 46.7650781 75.6053906 23.8863281 78.8132813 19.6638281 87.9782813 19.6638281 91.3120313 23.8863281"></polygon>
                            <g transform="translate(78.984375, 25.078125)" fill="#FFBF06" id="Path">
                                <polygon points="8.73375 3.93726562 0.214921875 3.93726562 0.214921875 0.060234375 8.73375 0.060234375"></polygon>
                                <polygon points="8.73375 9.85289062 0.214921875 9.85289062 0.214921875 5.9746875 8.73375 5.9746875"></polygon>
                            </g>
                            <polygon id="Path" fill="#606060" points="59.9721094 46.6680469 44.2666406 46.6680469 44.2666406 17.135625 59.9721094 17.135625"></polygon>
                            <path d="M49.9858594,22.1946094 L46.8377344,22.1946094 L46.8377344,20.6435156 L49.9858594,20.6435156 L49.9858594,22.1946094 Z M57.4014844,36.2355469 L54.2533594,36.2355469 L54.2533594,34.6846875 L57.4014844,34.6846875 L57.4014844,36.2355469 Z M53.6934375,36.2355469 L50.54625,36.2355469 L50.54625,34.6846875 L53.6934375,34.6846875 L53.6934375,36.2355469 Z M49.9858594,36.2355469 L46.8377344,36.2355469 L46.8377344,34.6846875 L49.9858594,34.6846875 L49.9858594,36.2355469 Z M57.4014844,33.4272656 L54.2533594,33.4272656 L54.2533594,31.876875 L57.4014844,31.876875 L57.4014844,33.4272656 Z M53.6934375,33.4272656 L50.54625,33.4272656 L50.54625,31.876875 L53.6934375,31.876875 L53.6934375,33.4272656 Z M49.9858594,33.4272656 L46.8377344,33.4272656 L46.8377344,31.876875 L49.9858594,31.876875 L49.9858594,33.4272656 Z M57.4014844,30.6194531 L54.2533594,30.6194531 L54.2533594,29.0678906 L57.4014844,29.0678906 L57.4014844,30.6194531 Z M53.6934375,30.6194531 L50.54625,30.6194531 L50.54625,29.0678906 L53.6934375,29.0678906 L53.6934375,30.6194531 Z M49.9858594,30.6194531 L46.8377344,30.6194531 L46.8377344,29.0678906 L49.9858594,29.0678906 L49.9858594,30.6194531 Z M57.4014844,27.8116406 L54.2533594,27.8116406 L54.2533594,26.2596094 L57.4014844,26.2596094 L57.4014844,27.8116406 Z M53.6934375,27.8116406 L50.54625,27.8116406 L50.54625,26.2596094 L53.6934375,26.2596094 L53.6934375,27.8116406 Z M49.9858594,27.8116406 L46.8377344,27.8116406 L46.8377344,26.2596094 L49.9858594,26.2596094 L49.9858594,27.8116406 Z M57.4014844,25.0033594 L54.2533594,25.0033594 L54.2533594,23.4517969 L57.4014844,23.4517969 L57.4014844,25.0033594 Z M53.6934375,25.0033594 L50.54625,25.0033594 L50.54625,23.4517969 L53.6934375,23.4517969 L53.6934375,25.0033594 Z M49.9858594,25.0033594 L46.8377344,25.0033594 L46.8377344,23.4517969 L49.9858594,23.4517969 L49.9858594,25.0033594 Z M57.4014844,22.1946094 L54.2533594,22.1946094 L54.2533594,20.6435156 L57.4014844,20.6435156 L57.4014844,22.1946094 Z M53.6934375,22.1946094 L50.54625,22.1946094 L50.54625,20.6435156 L53.6934375,20.6435156 L53.6934375,22.1946094 Z" id="Shape" fill="#BBBBBB" fill-rule="nonzero"></path>
                            <path d="M12.7221094,46.4786719 L3.33398438,46.4786719 C1.17632813,40.2907031 0,33.6426562 0,26.71875 C0,22.7008594 0.398203125,18.7757813 1.15148438,14.9791406 L4.86867188,12.8810156 L12.721875,17.3135156 L12.721875,46.4786719 L12.7221094,46.4786719 Z" id="Path" fill="#606060"></path>
                            <g transform="translate(1.875000, 28.359375)" fill="#E5E5E5" id="Path">
                                <polygon points="2.28890625 4.7596875 0.192421875 4.7596875 0.192421875 0.156328125 2.28890625 0.156328125"></polygon>
                                <polygon points="5.55632813 4.7596875 3.459375 4.7596875 3.459375 0.156328125 5.55632813 0.156328125"></polygon>
                                <polygon points="2.28890625 10.8714844 0.192421875 10.8714844 0.192421875 6.26742187 2.28890625 6.26742187"></polygon>
                                <polygon points="5.55632813 10.8714844 3.459375 10.8714844 3.459375 6.26742187 5.55632813 6.26742187"></polygon>
                            </g>
                            <polygon id="Path" fill="#202020" points="61.31625 12.8617969 61.31625 9.7415625 73.3195312 9.7415625 73.3195312 12.8617969 75.6053906 12.8617969 75.6053906 46.6364063 59.8996875 46.6364063 59.8996875 12.8617969"></polygon>
                            <path d="M116.411016,47.2026563 L106.343203,47.2026563 L106.343203,16.0403906 L114.304922,10.134375 L118.477031,13.2292969 C119.473359,17.5652344 120,22.0809375 120,26.71875 C120,33.913125 118.732969,40.8107812 116.411016,47.2026563 Z" id="Path" fill="#DBE2E4"></path>
                            <g transform="translate(109.218750, 27.656250)" fill="#BAC8CA" id="Path">
                                <path d="M4.00921875,1.92820312 C4.00921875,0.888984375 3.16148437,0.047109375 2.11570312,0.047109375 C1.06992187,0.047109375 0.22265625,0.88875 0.22265625,1.92820312 C0.22265625,2.96695312 1.06992187,3.80882812 2.11570312,3.80882812 C3.16148437,3.80882812 4.00921875,2.96695312 4.00921875,1.92820312 Z"></path>
                                <path d="M9.55382812,1.92820312 C9.55382812,0.888984375 8.70609375,0.047109375 7.6603125,0.047109375 C6.615,0.047109375 5.76726562,0.88875 5.76726562,1.92820312 C5.76726562,2.96695312 6.615,3.80882812 7.6603125,3.80882812 C8.70632812,3.80882812 9.55382812,2.96695312 9.55382812,1.92820312 Z"></path>
                                <path d="M4.00921875,7.28132813 C4.00921875,6.241875 3.16148437,5.40070313 2.11570312,5.40070313 C1.06992187,5.40070313 0.22265625,6.24210937 0.22265625,7.28132813 C0.22265625,8.32007813 1.06992187,9.16289063 2.11570312,9.16289063 C3.16148437,9.16289063 4.00921875,8.32007813 4.00921875,7.28132813 Z"></path>
                            </g>
                            <polygon id="Path" fill="#FFFFFF" points="99.5149219 0.581953125 98.1028125 0.581953125 98.1028125 13.7632031 99.5149219 13.7632031"></polygon>
                            <g transform="translate(109.218750, 33.046875)" fill="#BAC8CA" id="Path">
                                <path d="M9.55382812,1.89070313 C9.55382812,0.85125 8.70609375,0.010078125 7.6603125,0.010078125 C6.615,0.010078125 5.76726562,0.851484375 5.76726562,1.89070313 C5.76726562,2.92945313 6.615,3.77226563 7.6603125,3.77226563 C8.70632812,3.7725 9.55382812,2.92945313 9.55382812,1.89070313 Z"></path>
                                <path d="M4.00921875,7.24382812 C4.00921875,6.20554687 3.16148437,5.36320312 2.11570312,5.36320312 C1.06992187,5.36320312 0.22265625,6.20554687 0.22265625,7.24382812 C0.22265625,8.28257813 1.06992187,9.12539063 2.11570312,9.12539063 C3.16148437,9.12539063 4.00921875,8.28257813 4.00921875,7.24382812 Z"></path>
                                <path d="M9.40148437,6.50296875 C9.1115625,5.83289063 8.44101562,5.36320312 7.66054688,5.36320312 C6.61523438,5.36320312 5.7675,6.20554687 5.7675,7.24382812 C5.7675,8.28257813 6.61523438,9.12539063 7.66054688,9.12539063 C8.13023438,9.12539063 8.55914063,8.95523437 8.8903125,8.67398438 C9.075,7.955625 9.24304688,7.2309375 9.40148437,6.50296875 Z"></path>
                            </g>
                            <polygon id="Path" fill="#FFFFFF" points="106.343203 21.4849219 91.2721875 21.4849219 91.2721875 46.8110156 106.343203 46.8110156"></polygon>
                            <polygon id="Path" fill="#424242" points="103.5225 5.71382812 94.0935937 5.71382812 94.0935937 11.4023438 91.2721875 11.4023438 91.2721875 13.7632031 94.0935937 13.7632031 94.0935937 16.2440625 91.2721875 16.2440625 91.2721875 19.5220313 97.4397656 19.5220313 97.4397656 22.0033594 91.2721875 22.0033594 91.2721875 25.2810938 97.4397656 25.2810938 97.4397656 27.7628906 91.2721875 27.7628906 91.2721875 31.0403906 97.4397656 31.0403906 97.4397656 33.5217188 91.2721875 33.5217188 91.2721875 36.7994531 97.4397656 36.7994531 97.4397656 39.2803125 91.2721875 39.2803125 91.2721875 42.55875 97.4397656 42.55875 97.4397656 45.0398438 91.2721875 45.0398438 91.2721875 46.8110156 106.343203 46.8110156 106.343203 45.0398438 100.176797 45.0398438 100.176797 42.55875 106.343203 42.55875 106.343203 39.2803125 100.176797 39.2803125 100.176797 36.7994531 106.343203 36.7994531 106.343203 33.5217188 100.176797 33.5217188 100.176797 31.0403906 106.343203 31.0403906 106.343203 27.7628906 100.176797 27.7628906 100.176797 25.2810938 106.343203 25.2810938 106.343203 22.0033594 100.176797 22.0033594 100.176797 19.5220313 106.343203 19.5220313 106.343203 16.2440625 103.5225 16.2440625 103.5225 13.7632031 106.343203 13.7632031 106.343203 11.4023438 103.5225 11.4023438"></polygon>
                            <g transform="translate(91.171875, 13.593750)" fill="#FFFFFF" id="Path">
                                <polygon points="6.26789062 0.169453125 0.1003125 0.169453125 0.1003125 2.6503125 6.26789062 2.6503125"></polygon>
                                <polygon points="9.00492187 2.6503125 15.1713281 2.6503125 15.1713281 0.169453125 9.00492187 0.169453125"></polygon>
                                <polygon points="6.26789062 5.92828125 0.1003125 5.92828125 0.1003125 8.40960938 6.26789062 8.40960938"></polygon>
                                <polygon points="9.00492187 8.40960938 15.1713281 8.40960938 15.1713281 5.92828125 9.00492187 5.92828125"></polygon>
                                <polygon points="6.26789062 11.6873438 0.1003125 11.6873438 0.1003125 14.1691406 6.26789062 14.1691406"></polygon>
                                <polygon points="9.00492187 14.1691406 15.1713281 14.1691406 15.1713281 11.6873438 9.00492187 11.6873438"></polygon>
                                <polygon points="6.26789062 17.4466406 0.1003125 17.4466406 0.1003125 19.9279688 6.26789062 19.9279688"></polygon>
                                <polygon points="9.00492187 19.9279688 15.1713281 19.9279688 15.1713281 17.4466406 9.00492187 17.4466406"></polygon>
                                <polygon points="6.26789062 23.2057031 0.1003125 23.2057031 0.1003125 25.6865625 6.26789062 25.6865625"></polygon>
                                <polygon points="9.00492187 25.6865625 15.1713281 25.6865625 15.1713281 23.2057031 9.00492187 23.2057031"></polygon>
                            </g>
                        </g>
                        <path d="M2.52585937,77.2654687 L117.473906,77.2654687 C117.148125,78.3515625 116.795391,79.4252344 116.410312,80.4846094 L3.58945312,80.4846094 C3.20460937,79.4254687 2.851875,78.3515625 2.52585937,77.2654687 Z" id="Path" fill="#BBBBBB"></path>
                        <path d="M16.1847656,100.985156 L103.815,100.985156 C109.295859,95.1285937 113.616563,88.1735156 116.410313,80.4846094 L3.58945312,80.4846094 C6.3834375,88.1735156 10.7041406,95.1285937 16.1847656,100.985156 Z" id="Path" fill="#606060"></path>
                        <path d="M110.616094,91.5928125 L111.013359,91.5928125 C111.364922,91.0258594 111.710859,90.4551563 112.044141,89.8764844 L110.616094,89.8764844 L110.616094,91.5928125 Z M8.98640625,91.5928125 C8.70351563,91.1369531 8.42648438,90.6775781 8.15554688,90.2142188 L8.15554688,89.8767187 L21.8170313,89.8767187 L21.8170313,91.5930469 L8.98640625,91.5930469 L8.98640625,91.5928125 Z M93.5388281,91.5928125 L107.200078,91.5928125 L107.200078,89.8764844 L93.5388281,89.8764844 L93.5388281,91.5928125 Z M76.4617969,91.5928125 L90.1235156,91.5928125 L90.1235156,89.8764844 L76.4617969,89.8764844 L76.4617969,91.5928125 Z M59.3852344,91.5928125 L73.0464844,91.5928125 L73.0464844,89.8764844 L59.3852344,89.8764844 L59.3852344,91.5928125 Z M42.3091406,91.5928125 L55.9696875,91.5928125 L55.9696875,89.8764844 L42.3091406,89.8764844 L42.3091406,91.5928125 Z M25.2325781,91.5928125 L38.8938281,91.5928125 L38.8938281,89.8764844 L25.2325781,89.8764844 L25.2325781,91.5928125 Z" id="Shape" fill="#FFFFFF" fill-rule="nonzero"></path>
                        <path d="M103.815703,100.984687 L16.1842969,100.984687 C27.133125,112.685156 42.7113281,120 60,120 C77.2886719,120 92.8666406,112.685156 103.815703,100.984687 Z" id="Path" fill="#7CB142"></path>
                        <path d="M62.5844531,51.5840625 L64.1460938,51.5840625 L64.1460938,47.9414062 L62.5844531,47.9414062 L62.5844531,51.5840625 Z M64.1460938,61.6127344 L64.1460938,57.9707812 L62.5844531,57.9707812 L62.5844531,61.6127344 L64.1460938,61.6127344 Z M67.0870312,61.6127344 L67.0870312,57.9707812 L65.5263281,57.9707812 L65.5263281,61.6127344 L67.0870312,61.6127344 Z M69.9799219,61.6127344 L69.9799219,57.9707812 L68.41875,57.9707812 L68.41875,61.6127344 L69.9799219,61.6127344 Z M72.920625,57.9705469 L71.3589844,57.9705469 L71.3589844,61.6125 L72.920625,61.6125 L72.920625,57.9705469 Z M71.3589844,52.9558594 L71.3589844,56.5985156 L72.920625,56.5985156 L72.920625,52.9558594 L71.3589844,52.9558594 Z M68.4185156,52.9558594 L68.4185156,56.5985156 L69.9796875,56.5985156 L69.9796875,52.9558594 L68.4185156,52.9558594 Z M65.5265625,52.9558594 L65.5265625,56.5985156 L67.0872656,56.5985156 L67.0872656,52.9558594 L65.5265625,52.9558594 Z M64.1460938,56.5985156 L64.1460938,52.9558594 L62.5844531,52.9558594 L62.5844531,56.5985156 L64.1460938,56.5985156 Z M71.3589844,47.9414062 L71.3589844,51.5840625 L72.920625,51.5840625 L72.920625,47.9414062 L71.3589844,47.9414062 Z M68.4185156,47.9414062 L68.4185156,51.5840625 L69.9796875,51.5840625 L69.9796875,47.9414062 L68.4185156,47.9414062 Z M65.5265625,47.9414062 L65.5265625,51.5840625 L67.0872656,51.5840625 L67.0872656,47.9414062 L65.5265625,47.9414062 Z" id="Shape" fill="#FFFFFF" fill-rule="nonzero"></path>
                        <g id="Group" transform="translate(3.750000, 76.875000)">
                            <path d="M1.24335937,6.38414062 C1.24335937,6.541875 1.1934375,6.68859375 1.10859375,6.80835937 C0.928828125,6.38976562 0.75375,5.96882812 0.583125,5.54507812 C0.954140625,5.58210938 1.24335937,5.89523438 1.24335937,6.27632812 L1.24335937,6.38414062 Z" id="Path" fill="#BBBBBB"></path>
                            <path d="M0.057890625,4.19484375 C3.2109375,2.34960938 9.14648438,-0.948984375 14.8448437,0.6084375 C14.8448437,0.6084375 16.2117187,0.93328125 18.3967969,2.74242188 C18.3967969,2.74242188 30.3501563,2.07632813 32.5361719,5.73234375 C32.5361719,5.73234375 31.3722656,7.70367188 22.44,8.15625 C22.44,8.15625 7.95234375,8.30132813 4.19320313,8.2003125 C4.19320313,8.2003125 3.03375,8.31140625 1.4503125,7.321875 L1.28976563,7.22203125 C0.85265625,6.226875 0.441796875,5.21765625 0.057890625,4.19484375 Z" id="Path" fill="#FFB100"></path>
                            <path d="M4.87851562,8.26992188 L11.3170312,8.30484375 C11.3170312,7.17375 10.7271094,5.99203125 9.83695313,5.54109375 L6.358125,5.54109375 C5.46890625,5.99226563 4.87851562,7.13929688 4.87851562,8.26992188 Z" id="Path" fill="#333333"></path>
                            <path d="M5.38570313,8.1271875 C5.38570313,9.62507813 6.6,10.8389062 8.09742188,10.8389062 C9.5953125,10.8389062 10.8096094,9.62484375 10.8096094,8.1271875 C10.8096094,6.62882813 9.5953125,5.44828125 8.09742187,5.44828125 C6.60023438,5.44828125 5.38570313,6.62882813 5.38570313,8.1271875 Z" id="Path" fill="#424242"></path>
                            <path d="M6.02859375,8.1271875 C6.02859375,9.26976562 6.9553125,10.1967187 8.09765625,10.1967187 C9.24023438,10.1967187 10.1678906,9.26953125 10.1678906,8.1271875 C10.1678906,6.984375 9.24023438,6.058125 8.09765625,6.058125 C6.95507812,6.058125 6.02859375,6.984375 6.02859375,8.1271875 Z" id="Path" fill="#FFFFFF"></path>
                            <path d="M6.4509375,8.1271875 C6.4509375,9.0365625 7.18875,9.77320313 8.09742188,9.77320313 C9.00585938,9.77320313 9.74390625,9.0365625 9.74390625,8.1271875 C9.74390625,7.21828125 9.005625,6.48070313 8.09742188,6.48070313 C7.18875,6.48070313 6.4509375,7.21828125 6.4509375,8.1271875 Z" id="Path" fill="#BBBBBB"></path>
                            <path d="M27.2728125,7.67460938 C27.3825,7.63007813 27.7790625,7.61882813 27.7769531,7.588125 C27.6689063,6.22453125 26.2026563,4.93617187 24.6067969,4.93617187 C22.8285938,4.93617187 21.3871875,6.34710937 21.3871875,8.15625 L27.3180469,8.16703125 L27.2728125,7.67460938 Z" id="Path" fill="#333333"></path>
                            <path d="M21.8939063,8.16703125 C21.8939063,9.66539062 23.1086719,10.8792188 24.6065625,10.8792188 C26.1044531,10.8792188 27.3178125,9.66539063 27.3178125,8.16703125 C27.3178125,6.66914062 26.1044531,5.4553125 24.6065625,5.4553125 C23.1086719,5.4553125 21.8939063,6.66914062 21.8939063,8.16703125 Z" id="Path" fill="#424242"></path>
                            <path d="M22.5365625,8.16703125 C22.5365625,9.30984375 23.4625781,10.2370312 24.6065625,10.2370312 C25.7489063,10.2370312 26.675625,9.30984375 26.675625,8.16703125 C26.675625,7.02398437 25.7489063,6.0984375 24.6065625,6.0984375 C23.4625781,6.0984375 22.5365625,7.02398437 22.5365625,8.16703125 Z" id="Path" fill="#FFFFFF"></path>
                            <path d="M22.9600781,8.16703125 C22.9600781,9.076875 23.6971875,9.81304688 24.6065625,9.81304688 C25.515,9.81304688 26.2521094,9.07710938 26.2521094,8.16703125 C26.2521094,7.258125 25.515,6.52054688 24.6065625,6.52054688 C23.6971875,6.52054688 22.9600781,7.258125 22.9600781,8.16703125 Z" id="Path" fill="#BBBBBB"></path>
                            <g transform="translate(1.640625, 0.468750)" fill="#7FDDE9" id="Path">
                                <path d="M6.75867188,2.61796875 L5.71242188,0.3946875 C3.6496875,0.983671875 1.75476563,1.8796875 0.2025,2.71617187 C4.6846875,3.084375 6.75867188,2.61796875 6.75867188,2.61796875 Z"></path>
                                <path d="M7.58414063,0.617578125 C7.58414063,0.617578125 8.930625,2.91796875 10.633125,2.91796875 C10.633125,2.91796875 14.6992969,3.18867187 16.7355469,2.25773437 C14.9650781,0.7959375 13.7355469,0.309375 13.3410937,0.18 C11.394375,0.2390625 7.64015625,0.381796875 7.58414063,0.617578125 Z"></path>
                            </g>
                            <path d="M13.3898437,4.64039062 C13.3898437,4.764375 13.2883594,4.86585937 13.164375,4.86585937 L12.0375,4.86585937 C11.9123437,4.86585937 11.8120312,4.764375 11.8120312,4.64039062 C11.8120312,4.51523437 11.9123437,4.41492187 12.0375,4.41492187 L13.164375,4.41492187 C13.2885937,4.41492187 13.3898437,4.51523437 13.3898437,4.64039062 Z" id="Path" fill="#333333"></path>
                            <path d="M30.9276562,5.7984375 C30.9276562,6.1340625 30.6560156,6.40546875 30.3210938,6.40546875 C29.9861719,6.40546875 29.7140625,6.13382812 29.7140625,5.7984375 C29.7140625,5.46328125 29.9861719,5.191875 30.3210938,5.191875 C30.6560156,5.191875 30.9276562,5.46328125 30.9276562,5.7984375 Z" id="Path" fill="#FFFFFF"></path>
                            <path d="M32.5469531,14.6371875 C32.5469531,14.9217188 32.3165625,15.1521094 32.0315625,15.1521094 L32.0177344,15.1521094 C31.7339062,15.1521094 31.5028125,14.9217188 31.5028125,14.6371875 L31.5028125,13.4625 C31.5028125,13.1779687 31.7336719,12.9482812 32.0177344,12.9482812 L32.0315625,12.9482812 C32.3167969,12.9482812 32.5469531,13.1779687 32.5469531,13.4625 L32.5469531,14.6371875 Z" id="Path" fill="#00E3FF"></path>
                            <path d="M65.5823437,13.7332031 C65.6702344,14.0880469 65.4522656,14.4457031 65.0985937,14.5319531 L64.4571094,14.6903906 C64.1022656,14.7785156 63.7446094,14.5614844 63.6576562,14.2066406 C63.5702344,13.8534375 63.7860937,13.4953125 64.1409375,13.4078906 L64.783125,13.2494531 C65.1372656,13.1625 65.4946875,13.3795313 65.5823437,13.7332031 Z" id="Path" fill="#ED1C23"></path>
                            <path d="M56.360625,6.33632813 C53.9467969,6.33632813 47.8082812,6.33632813 47.8082812,6.33632813 C44.7911719,6.33632813 42.3967969,9.58429688 41.5082812,10.5126563 L34.7770313,10.5126563 C33.3180469,10.5126563 32.1991406,11.6294531 32.1991406,13.0896094 L32.1991406,16.6603125 L41.1642188,16.6603125 L55.2597656,16.6603125 L57.9032812,16.6603125 L65.5284375,16.6603125 C63.2985938,5.64046875 57.0827344,6.33632813 56.360625,6.33632813 Z" id="Path" fill="#429F46"></path>
                            <path d="M66.3007031,16.2864844 C66.3007031,16.6204687 66.0290625,16.8916406 65.6946094,16.8916406 L32.1082031,16.8916406 C31.7744531,16.8916406 31.5025781,16.6204687 31.5025781,16.2864844 L31.5025781,16.2222656 C31.5025781,15.8878125 31.7742187,15.6157031 32.1082031,15.6157031 L65.6946094,15.6157031 C66.0288281,15.6157031 66.3007031,15.8878125 66.3007031,16.2222656 L66.3007031,16.2864844 Z" id="Path" fill="#DFDFDF"></path>
                            <path d="M41.2790625,16.2011719 C41.2790625,17.7890625 39.9911719,19.0760156 38.4025781,19.0760156 C36.8151563,19.0760156 35.5277344,17.7890625 35.5277344,16.2011719 C35.5277344,14.6125781 36.8151563,13.3258594 38.4025781,13.3258594 C39.9909375,13.3258594 41.2790625,14.6125781 41.2790625,16.2011719 Z" id="Path" fill="#424242"></path>
                            <path d="M40.3357031,16.2011719 C40.3357031,17.2680469 39.4703906,18.1338281 38.4023438,18.1338281 C37.3357031,18.1338281 36.4696875,17.2680469 36.4696875,16.2011719 C36.4696875,15.1328906 37.3357031,14.2685156 38.4023438,14.2685156 C39.4703906,14.2685156 40.3357031,15.1328906 40.3357031,16.2011719 Z" id="Path" fill="#FFFFFF"></path>
                            <path d="M39.8772656,16.2011719 C39.8772656,17.0151563 39.2167969,17.6749219 38.4023438,17.6749219 C37.5885937,17.6749219 36.9288281,17.0151563 36.9288281,16.2011719 C36.9288281,15.3871875 37.5885937,14.728125 38.4023438,14.728125 C39.2167969,14.728125 39.8772656,15.3871875 39.8772656,16.2011719 Z" id="Path" fill="#BBBBBB"></path>
                            <path d="M62.4210937,16.2011719 C62.4210937,17.7890625 61.1341406,19.0760156 59.5457813,19.0760156 C57.9576562,19.0760156 56.6707031,17.7890625 56.6707031,16.2011719 C56.6707031,14.6125781 57.9576562,13.3258594 59.5457813,13.3258594 C61.134375,13.3258594 62.4210937,14.6125781 62.4210937,16.2011719 Z" id="Path" fill="#424242"></path>
                            <path d="M61.4784375,16.2011719 C61.4784375,17.2680469 60.613125,18.1338281 59.5457813,18.1338281 C58.4779688,18.1338281 57.6128906,17.2680469 57.6128906,16.2011719 C57.6128906,15.1328906 58.4777344,14.2685156 59.5457813,14.2685156 C60.613125,14.2685156 61.4784375,15.1328906 61.4784375,16.2011719 Z" id="Path" fill="#FFFFFF"></path>
                            <path d="M61.02,16.2011719 C61.02,17.0151563 60.3595312,17.6749219 59.5457812,17.6749219 C58.7313281,17.6749219 58.0715625,17.0151563 58.0715625,16.2011719 C58.0715625,15.3871875 58.7313281,14.728125 59.5457812,14.728125 C60.3595312,14.728125 61.02,15.3871875 61.02,16.2011719 Z" id="Path" fill="#BBBBBB"></path>
                            <path d="M42.7059375,10.5126562 L61.8665625,10.5126562 C61.8665625,10.5126562 59.8851562,7.1765625 56.3969531,7.1765625 C56.3969531,7.1765625 50.0500781,7.11164063 47.7304688,7.11164063 C46.68375,7.11164063 44.7609375,7.72851563 42.7059375,10.5126562 Z" id="Path" fill="#DFF5F9"></path>
                            <polygon id="Path" fill="#429F46" points="52.0333594 10.9757812 51.1057031 10.9757812 51.1057031 7.03265625 52.0333594 7.03265625"></polygon>
                            <g transform="translate(42.421875, 9.140625)" fill="#1A5E20" id="Path">
                                <path d="M8.68382812,2.7871875 C8.68382812,3.03023437 8.48671875,3.22734375 8.24296875,3.22734375 L6.68882812,3.22734375 C6.44507812,3.22734375 6.2475,3.03023437 6.2475,2.7871875 L6.2475,2.73984375 C6.2475,2.49726562 6.44507812,2.2996875 6.68882812,2.2996875 L8.24296875,2.2996875 C8.48671875,2.2996875 8.68382812,2.49726563 8.68382812,2.73984375 L8.68382812,2.7871875 Z"></path>
                                <path d="M12.0473437,2.7871875 C12.0473437,3.03023437 11.8502344,3.22734375 11.6064844,3.22734375 L10.0523437,3.22734375 C9.8090625,3.22734375 9.61148437,3.03023437 9.61148437,2.7871875 L9.61148437,2.73984375 C9.61148437,2.49726562 9.8090625,2.2996875 10.0523437,2.2996875 L11.6064844,2.2996875 C11.8502344,2.2996875 12.0473437,2.49726563 12.0473437,2.73984375 L12.0473437,2.7871875 Z"></path>
                                <path d="M3.23203125,0.705703125 C3.23203125,0.425390625 2.94796875,0.204375 2.66765625,0.204375 L0.555,0.425625 C0.27421875,0.425625 0.1003125,0.645703125 0.1003125,0.926015625 L0.1003125,1.73882813 C0.1003125,2.01914063 0.253359375,2.18695313 0.533203125,2.18695313 L2.67632813,1.96757813 C2.95710938,1.96757813 3.23203125,1.79859375 3.23203125,1.51828125 L3.23203125,0.705703125 Z"></path>
                            </g>
                            <path d="M100.309453,17.9873437 C100.309453,17.8401562 100.336406,17.8626563 100.484531,17.8626563 L103.431094,17.8626563 C103.57875,17.8626563 103.698984,17.9109375 103.698984,18.0585938 L103.431094,19.6483594 C103.431094,19.7964844 103.311328,19.8984375 103.1625,19.8984375 L100.484531,19.8984375 C100.336406,19.8984375 100.309453,19.7423438 100.309453,19.5946875 L100.309453,17.9873437 Z" id="Path" fill="#F9F9F9"></path>
                            <path d="M79.8585938,13.9694531 C79.8585938,13.9694531 75.0496875,14.1058594 73.4526563,14.2373437 C71.5546875,14.3936719 67.933125,15.2833594 67.933125,16.7714062 C67.933125,18.9253125 69.5458594,20.4649219 70.8182812,20.4649219 C78.6424219,20.4649219 100.461094,20.3978906 100.461094,20.3978906 C100.461094,20.3978906 101.372812,20.5917188 102.153984,19.38 C102.936797,18.1682812 104.735156,15.6660937 103.386094,14.746875 C103.386094,14.746875 98.4410156,11.3254687 93.2995313,11.3254687 C93.2995313,11.3254687 90.2346094,11.2195312 88.880625,11.2052344 C86.7583594,11.1827344 85.1859375,11.2082813 79.8585938,13.9694531 Z" id="Path" fill="#FF3C00"></path>
                            <path d="M68.5961719,16.3542188 C68.6552344,16.5302344 69.54,16.3971094 70.5735938,16.0551563 C71.6069531,15.7132031 72.3967969,15.2934375 72.339375,15.1167187 C72.2803125,14.9407031 71.3955469,15.0752344 70.3619531,15.4167187 C69.3285938,15.7584375 68.5382812,16.1782031 68.5961719,16.3542188 Z" id="Path" fill="#FBF47E"></path>
                            <path d="M102.824062,15.4328906 C102.824062,15.1047656 102.980156,14.8148437 103.21875,14.6360156 C103.326562,14.7051563 103.386094,14.7466406 103.386094,14.7466406 C103.924219,15.1127344 103.960547,15.73125 103.762031,16.4189062 C103.242891,16.4107031 102.824062,15.9724219 102.824062,15.4328906 Z" id="Path" fill="#ED1C23"></path>
                            <polygon id="Path" fill="#DB2C00" points="77.78625 19.6591406 93.3607031 19.6591406 93.3607031 20.4970313 77.78625 20.4970313"></polygon>
                            <path d="M92.5891406,18.9391406 C92.5891406,20.7827344 94.0828125,22.2759375 95.9259375,22.2759375 C97.7683594,22.2759375 99.2625,20.7827344 99.2625,18.9391406 C99.2625,17.0967188 97.7683594,15.6032813 95.9259375,15.6032813 C94.0828125,15.6030469 92.5891406,17.0967188 92.5891406,18.9391406 Z" id="Path" fill="#424242"></path>
                            <path d="M93.6829688,18.9391406 C93.6829688,20.1782812 94.6879688,21.1821094 95.9259375,21.1821094 C97.164375,21.1821094 98.1689062,20.1782812 98.1689062,18.9391406 C98.1689062,17.7007031 97.164375,16.6966406 95.9259375,16.6966406 C94.6877344,16.6966406 93.6829688,17.7007031 93.6829688,18.9391406 Z" id="Path" fill="#BBBBBB"></path>
                            <path d="M95.3814844,18.9391406 C95.3814844,19.2398438 95.6252344,19.4835937 95.9259375,19.4835937 C96.2266406,19.4835937 96.4692187,19.2398437 96.4692187,18.9391406 C96.4692187,18.6391406 96.2266406,18.3958594 95.9259375,18.3958594 C95.6252344,18.3958594 95.3814844,18.6391406 95.3814844,18.9391406 Z" id="Path" fill="#FFFFFF"></path>
                            <path d="M71.6960156,18.9391406 C71.6960156,20.7827344 73.1899219,22.2759375 75.0330469,22.2759375 C76.8752344,22.2759375 78.3691406,20.7827344 78.3691406,18.9391406 C78.3691406,17.0967188 76.8752344,15.6032813 75.0330469,15.6032813 C73.1901563,15.6030469 71.6960156,17.0967188 71.6960156,18.9391406 Z" id="Path" fill="#424242"></path>
                            <path d="M72.7896094,18.9391406 C72.7896094,20.1782812 73.7946094,21.1821094 75.0330469,21.1821094 C76.2721875,21.1821094 77.2755469,20.1782812 77.2755469,18.9391406 C77.2755469,17.7007031 76.2721875,16.6966406 75.0330469,16.6966406 C73.7946094,16.6966406 72.7896094,17.7007031 72.7896094,18.9391406 Z" id="Path" fill="#BBBBBB"></path>
                            <path d="M74.4883594,18.9391406 C74.4883594,19.2398438 74.7314062,19.4835937 75.0328125,19.4835937 C75.3330469,19.4835937 75.5767969,19.2398437 75.5767969,18.9391406 C75.5767969,18.6391406 75.3330469,18.3958594 75.0328125,18.3958594 C74.7314062,18.3958594 74.4883594,18.6391406 74.4883594,18.9391406 Z" id="Path" fill="#FFFFFF"></path>
                            <path d="M97.1135156,12.7582031 C97.2567188,12.8322656 97.6155469,13.3750781 96.6346875,13.7547656 C95.6517188,14.13375 94.546875,14.6278125 91.9347656,14.6278125 C89.3235938,14.6278125 83.3414062,14.6278125 83.3414062,14.6278125 C83.3414062,14.6278125 81.3796875,14.5795313 79.8588281,14.0313281 C79.9092187,14.0292188 79.8588281,14.0313281 79.8588281,14.0313281 C81.7682813,13.040625 83.1946875,12.3728906 84.3384375,11.9622656 C95.1689062,11.4944531 96.5683594,12.4769531 97.1135156,12.7582031 Z" id="Path" fill="#B1E3FB"></path>
                            <g transform="translate(81.093750, 11.250000)" fill="#FF3C00" id="Path">
                                <polygon points="12.2669531 3.61710937 12.7464844 3.61710937 12.7464844 0.38296875 12.2669531 0.38296875"></polygon>
                                <polygon points="0.15375 3.25148437 0.3984375 3.72773437 6.58898437 0.5484375 6.34429688 0.071484375"></polygon>
                            </g>
                            <path d="M90.3053906,15.9457031 C90.3053906,16.0933594 90.4244531,16.1852344 90.5732812,16.1852344 L91.9127344,16.1852344 C92.0608594,16.1852344 92.1801562,16.0933594 92.1801562,15.9457031 C92.1801562,15.7975781 92.0610937,15.7061719 91.9127344,15.7061719 L90.5732812,15.7061719 C90.4246875,15.7061719 90.3053906,15.7973437 90.3053906,15.9457031 Z" id="Path" fill="#333333"></path>
                        </g>
                        <path d="M65.1839062,21.5503125 C65.9289844,21.5503125 66.6316406,21.7270312 67.2539062,22.0410937 C67.9282031,21.3813281 68.8504687,20.9742187 69.8685937,20.9742187 C71.6310937,20.9742187 73.1090625,22.1941406 73.5035156,23.8357031 C74.3845312,24.1005469 75.0914062,24.765 75.4136719,25.6188281 C75.5196094,25.6075781 75.6267187,25.6017187 75.7357031,25.6017187 C77.3641406,25.6017187 78.6848437,26.9224219 78.6848437,28.5510937 C78.6848437,30.18 77.3641406,31.5002344 75.7357031,31.5002344 C75.2280469,31.5002344 74.750625,31.3725 74.3339062,31.1467969 C73.9760156,32.3725781 72.8442187,33.2674219 71.503125,33.2674219 C70.6832813,33.2674219 69.9419531,32.9329688 69.4073437,32.3934375 C68.8732031,32.9329687 68.1311719,33.2674219 67.3120313,33.2674219 C66.5329687,33.2674219 65.8249219,32.9653125 65.2971094,32.4719531 C64.7580469,33.061875 63.9825,33.4317188 63.1207031,33.4317188 C62.3139844,33.4317188 61.5832031,33.1080469 61.0507031,32.5830469 C60.8074219,32.6371875 60.5540625,32.6650781 60.2948437,32.6650781 C58.3542188,32.6650781 56.7815625,31.0921875 56.7815625,29.1517969 C56.7815625,27.2114062 58.3539844,25.6380469 60.2948437,25.6380469 C60.4005469,25.6380469 60.5053125,25.6432031 60.6089062,25.6523437 C60.8578125,23.345625 62.8115625,21.5503125 65.1839062,21.5503125 Z" id="Path" fill="#FFFFFF"></path>
                        <path d="M54.6651562,19.2803906 C58.9713281,19.2803906 62.4625781,22.7716406 62.4625781,27.0775781 C62.4625781,31.3839844 58.9713281,34.875 54.6651562,34.875 C50.3589844,34.875 46.8677344,31.38375 46.8677344,27.0775781 C46.8677344,22.7716406 50.3589844,19.2803906 54.6651562,19.2803906 Z" id="Path" fill="#FFFF00"></path>
                        <path d="M37.0586719,18.9930469 C37.80375,18.9930469 38.5064062,19.1697656 39.1286719,19.4838281 C39.8029687,18.8240625 40.7252344,18.4169531 41.7433594,18.4169531 C43.5058594,18.4169531 44.9838281,19.636875 45.3785156,21.2784375 C46.2595312,21.5430469 46.9664062,22.2077344 47.2886719,23.0613281 C47.3946094,23.0500781 47.5017187,23.0442188 47.6107031,23.0442188 C49.2391406,23.0442188 50.5598437,24.3649219 50.5598437,25.9938281 C50.5598437,27.6227344 49.2391406,28.9427344 47.6107031,28.9427344 C47.1030469,28.9427344 46.625625,28.815 46.2089062,28.5895313 C45.8510156,29.8150781 44.7192187,30.7099219 43.378125,30.7099219 C42.5582812,30.7099219 41.8169531,30.3757031 41.2823437,29.8359375 C40.7482031,30.3754688 40.0061719,30.7099219 39.1870312,30.7099219 C38.4079687,30.7099219 37.6999219,30.4078125 37.1721094,29.9144531 C36.6330469,30.504375 35.8575,30.8742187 34.9957031,30.8742187 C34.1889844,30.8742187 33.4582031,30.5505469 32.9257031,30.0255469 C32.6824219,30.0796875 32.4290625,30.1075781 32.1698437,30.1075781 C30.2292187,30.1075781 28.6565625,28.5346875 28.6565625,26.5942969 C28.6565625,24.6539062 30.2289844,23.0805469 32.1698437,23.0805469 C32.2755469,23.0805469 32.3803125,23.0859375 32.4839062,23.0950781 C32.7325781,20.7883594 34.6863281,18.9930469 37.0586719,18.9930469 Z" id="Path" fill="#FFFFFF"></path>
                    </g>
                </g>
            </g>
        </g>
    </g>
</svg>