<?xml version="1.0" encoding="UTF-8"?>
<svg width="66px" height="68px" viewBox="0 0 66 68" version="1.1" xmlns="http://www.w3.org/2000/svg" xmlns:xlink="http://www.w3.org/1999/xlink">
    <!-- Generator: Sketch 52.4 (67378) - http://www.bohemiancoding.com/sketch -->
    <title>Group 3</title>
    <desc>Created with Sketch.</desc>
    <g id="Page-2" stroke="none" stroke-width="1" fill="none" fill-rule="evenodd">
        <g id="Artboard" transform="translate(-565.000000, -206.000000)" fill="#FFFFFF">
            <g id="Group-3" transform="translate(565.000000, 206.000000)">
                <g id="Group-2" transform="translate(14.000000, 0.000000)">
                    <g id="g110" transform="translate(19.499301, 19.559006) scale(-1, 1) rotate(-180.000000) translate(-19.499301, -19.559006) translate(0.999301, 9.559006)">
                        <polygon id="path112" points="34.5246905 19.7746474 32.5119745 19.6201122 11.7633701 19.6201122 6.18873441 14.0627039 12.0733577 8.19622515 23.5311476 8.19622515 25.0796167 6.65233786 22.9111723 4.49104214 0.653765416 4.49104214 2.78254314 0.322253513 24.9246228 0.322253513 31.1177647 6.49780265 25.0796167 12.5188166 13.7760861 12.5188166 12.4597404 13.8312673 14.2410675 15.6065912 36.5763386 15.6065912"></polygon>
                    </g>
                    <path d="M38.9776361,38.8169099 L0.249013623,38.8169099 L0.249013623,0.203615063 L38.9776361,0.203615063 L38.9776361,38.8169099 Z M35.1924078,3.97764314 L4.03571106,3.97764314 L4.03571106,35.0428818 L35.1924078,35.0428818 L35.1924078,3.97764314 Z" id="path114" fill-rule="nonzero" transform="translate(19.613325, 19.510262) scale(-1, 1) rotate(-180.000000) translate(-19.613325, -19.510262) "></path>
                </g>
                <g id="Group" transform="translate(0.000000, 52.000000)">
                    <g id="g116" transform="translate(4.259031, 7.932707) scale(-1, 1) rotate(-180.000000) translate(-4.259031, -7.932707) translate(0.259031, 0.432707)">
                        <path d="M3.67283941,0 C2.22720982,0 0.987259235,0.388169004 0.00514197518,0.997521102 L0.283543203,2.60366191 C1.28255552,1.99430981 2.35722834,1.62518306 3.63464188,1.62518306 C5.41303073,1.62518306 6.30185787,2.49307036 6.30185787,4.02597173 C6.30185787,7.21994348 0.116796293,6.00123929 0.116796293,10.5069293 C0.116796293,12.6858025 1.43093824,14.3109856 4.28326533,14.3109856 C5.50558628,14.3109856 6.67208008,14.0524504 7.56164179,13.6093518 L7.32070352,12.0398307 C6.35695046,12.4272673 5.41303073,12.6491828 4.39418508,12.6491828 C2.50561105,12.6491828 1.80189502,11.7439434 1.80189502,10.5809011 C1.80189502,7.55318291 7.98769116,8.77115471 7.98769116,4.13656328 C7.98769116,1.51385912 6.45024058,0 3.67283941,0" id="path118"></path>
                    </g>
                    <g id="g120" transform="translate(15.356455, 8.192409) scale(-1, 1) rotate(-180.000000) translate(-15.356455, -8.192409) translate(9.856455, 1.192409)">
                        <polygon id="path122" points="8.81481459 0 3.01687029 9.52845047 2.27716044 10.8203941 2.23969747 10.8020842 2.25806167 9.30653498 2.25806167 0 0.684617267 0 0.684617267 13.8488447 2.29552463 13.8488447 7.79596894 4.61628157 8.55477756 3.32360555 8.59150596 3.34191541 8.55477756 4.81915481 8.55477756 13.8488447 10.0922281 13.8488447 10.0922281 0"></polygon>
                    </g>
                    <g id="g124" transform="translate(27.162630, 8.331496) scale(-1, 1) rotate(-180.000000) translate(-27.162630, -8.331496) translate(21.162630, 0.831496)" fill-rule="nonzero">
                        <path d="M5.87654306,11.7183096 L4.04306163,5.55081676 L8.52539485,5.55081676 L6.71027761,11.7183096 L6.3400554,13.1772391 L6.28496281,13.1772391 L5.87654306,11.7183096 Z M8.96980842,3.98129568 L3.58028386,3.98129568 L2.59890117,0.639380266 L0.727956772,0.639380266 L5.24775296,14.488225 L7.39489488,14.488225 L11.9146911,0.639380266 L9.95119111,0.639380266 L8.96980842,3.98129568 Z" id="path126"></path>
                    </g>
                    <g id="g128" transform="translate(39.796650, 7.863716) scale(-1, 1) rotate(-180.000000) translate(-39.796650, -7.863716) translate(34.796650, 0.363716)" fill-rule="nonzero">
                        <path d="M4.4074073,12.4507039 L1.98112958,12.4507039 L1.98112958,7.53853502 L4.33321594,7.53853502 C5.96322207,7.53853502 6.68603687,8.16692937 6.68603687,10.0316054 C6.68603687,11.8413518 5.98232084,12.4507039 4.4074073,12.4507039 M6.01904923,6.43115477 L9.33341952,0.171380277 L7.25973439,0.171380277 L4.4074073,6.09864773 L1.98112958,6.09864773 L1.98112958,0.171380277 L0.222574069,0.171380277 L0.222574069,14.020225 L4.3890431,14.020225 C7.18554303,14.020225 8.50041954,12.8198307 8.50041954,10.1055772 C8.50041954,7.92670403 7.6299566,6.72630969 6.01904923,6.43115477" id="path130"></path>
                    </g>
                    <g id="g132" transform="translate(49.289324, 7.992837) scale(-1, 1) rotate(-180.000000) translate(-49.289324, -7.992837) translate(44.289324, 0.492837)">
                        <polygon id="path134" points="5.87654306 12.4507039 5.87654306 0.300281683 4.09888879 0.300281683 4.09888879 12.4507039 0.394462953 12.4507039 0.431925915 14.1491264 9.5626047 14.1491264 9.59859853 12.4507039"></polygon>
                    </g>
                    <g id="g136" transform="translate(60.140761, 8.485226) scale(-1, 1) rotate(-180.000000) translate(-60.140761, -8.485226) translate(54.140761, 0.985226)" fill-rule="nonzero">
                        <path d="M5.87654306,13.1830983 C3.46862954,13.1830983 2.54233944,12.1123377 2.54233944,7.71723924 C2.54233944,3.32287316 3.48625917,2.23307037 5.89417269,2.23307037 C8.30282078,2.23307037 9.20927755,3.32287316 9.20927755,7.71723924 C9.20927755,12.1306476 8.32045041,13.1830983 5.87654306,13.1830983 M5.89417269,0.552225338 C2.20958019,0.552225338 0.708858007,2.50991543 0.708858007,7.71723924 C0.708858007,12.9245631 2.17211723,14.8632109 5.89417269,14.8632109 C9.61769729,14.8632109 11.042759,12.9245631 11.042759,7.71723924 C11.042759,2.45498585 9.61769729,0.552225338 5.89417269,0.552225338" id="path138"></path>
                    </g>
                </g>
            </g>
        </g>
    </g>
</svg>