<?xml version="1.0" encoding="UTF-8"?>
<svg width="34px" height="44px" viewBox="0 0 34 44" version="1.1" xmlns="http://www.w3.org/2000/svg" xmlns:xlink="http://www.w3.org/1999/xlink">
    <!-- Generator: Sketch 52.4 (67378) - http://www.bohemiancoding.com/sketch -->
    <title>list</title>
    <desc>Created with Sketch.</desc>
    <g id="company" stroke="none" stroke-width="1" fill="none" fill-rule="evenodd">
        <g id="company-requirements" transform="translate(-941.000000, -745.000000)" fill="#2C5EE6">
            <g id="slider" transform="translate(-3898.000000, -260.000000)">
                <g id="content" transform="translate(4289.000000, 434.000000)">
                    <g id="list" transform="translate(550.000000, 571.000000)">
                        <path d="M33.1063231,10.1866016 L23.6662667,0.881117188 C23.0899231,0.312898438 22.3237026,0 21.5085744,0 L3.05128205,0 C1.36880513,0 0,1.34930469 0,3.0078125 L0,40.9921875 C0,42.6506953 1.36880513,44 3.05128205,44 L30.9487179,44 C32.6311949,44 34,42.6506953 34,40.9921875 L34,12.3134687 C34,11.5102109 33.6826667,10.7549062 33.1063231,10.1866016 Z M29.5352769,10.3125 L23.974359,10.3125 C23.7340051,10.3125 23.5384615,10.1197422 23.5384615,9.8828125 L23.5384615,4.40120313 L29.5352769,10.3125 Z M30.9487179,41.421875 L3.05128205,41.421875 C2.81092821,41.421875 2.61538462,41.2291172 2.61538462,40.9921875 L2.61538462,3.0078125 C2.61538462,2.77088281 2.81092821,2.578125 3.05128205,2.578125 L20.9230769,2.578125 L20.9230769,9.8828125 C20.9230769,11.5413203 22.2918821,12.890625 23.974359,12.890625 L31.3846154,12.890625 L31.3846154,40.9921875 C31.3846154,41.2291172 31.1890718,41.421875 30.9487179,41.421875 Z" id="Shape" fill-rule="nonzero"></path>
                        <path d="M18.4035897,19.6796875 L26.7354205,19.6796875 C27.4576154,19.6796875 28.0431128,19.1025312 28.0431128,18.390625 C28.0431128,17.6787188 27.4576154,17.1015625 26.7354205,17.1015625 L18.4035897,17.1015625 C17.6813949,17.1015625 17.0958974,17.6787188 17.0958974,18.390625 C17.0958974,19.1025312 17.6813077,19.6796875 18.4035897,19.6796875 Z" id="Path"></path>
                        <path d="M18.4035897,28.2734375 L26.7354205,28.2734375 C27.4576154,28.2734375 28.0431128,27.6962812 28.0431128,26.984375 C28.0431128,26.2724688 27.4576154,25.6953125 26.7354205,25.6953125 L18.4035897,25.6953125 C17.6813949,25.6953125 17.0958974,26.2724688 17.0958974,26.984375 C17.0958974,27.6962812 17.6813077,28.2734375 18.4035897,28.2734375 Z" id="Path"></path>
                        <path d="M26.7728205,34.2890625 L18.4035897,34.2890625 C17.6813949,34.2890625 17.0958974,34.8662188 17.0958974,35.578125 C17.0958974,36.2900312 17.6813949,36.8671875 18.4035897,36.8671875 L26.7728205,36.8671875 C27.4950154,36.8671875 28.0805128,36.2900312 28.0805128,35.578125 C28.0805128,34.8662188 27.4950154,34.2890625 26.7728205,34.2890625 Z" id="Path"></path>
                        <path d="M11.8787282,14.8806797 L8.86301538,17.8533438 L8.15189231,17.1523516 C7.64128205,16.6489297 6.81325128,16.6489297 6.30255385,17.1523516 C5.79185641,17.6557734 5.79185641,18.4719219 6.30255385,18.9753438 L7.93838974,20.587875 C8.19373846,20.8395859 8.52842051,20.9654844 8.86301538,20.9654844 C9.19761026,20.9654844 9.53237949,20.8396719 9.78764103,20.587875 L13.7279795,16.7036719 C14.2386769,16.20025 14.2386769,15.3841016 13.7279795,14.8806797 C13.2173692,14.3772578 12.3893385,14.3772578 11.8787282,14.8806797 Z" id="Path"></path>
                        <path d="M11.8787282,24.1307344 L8.86301538,27.1034844 L8.15189231,26.4024922 C7.64128205,25.8991562 6.81325128,25.8990703 6.30255385,26.4024922 C5.79185641,26.9059141 5.79185641,27.7220625 6.30255385,28.2254844 L7.93838974,29.8379297 C8.19373846,30.0896406 8.52842051,30.2154531 8.86301538,30.2154531 C9.19761026,30.2154531 9.53237949,30.0896406 9.78764103,29.8378437 L13.7279795,25.9536406 C14.2386769,25.4502187 14.2386769,24.6340703 13.7279795,24.1306484 C13.2173692,23.6273125 12.3893385,23.6273125 11.8787282,24.1307344 Z" id="Path"></path>
                        <path d="M11.8787282,32.7244844 L8.86301538,35.6972344 L8.15189231,34.9962422 C7.64128205,34.4929062 6.81325128,34.4928203 6.30255385,34.9962422 C5.79185641,35.4996641 5.79185641,36.3158125 6.30255385,36.8192344 L7.93838974,38.4316797 C8.19373846,38.6833906 8.52842051,38.8092031 8.86301538,38.8092031 C9.19761026,38.8092031 9.53237949,38.6833906 9.78764103,38.4315937 L13.7279795,34.5473906 C14.2386769,34.0439687 14.2386769,33.2278203 13.7279795,32.7243984 C13.2173692,32.2210625 12.3893385,32.2210625 11.8787282,32.7244844 Z" id="Path"></path>
                    </g>
                </g>
            </g>
        </g>
    </g>
</svg>