<?xml version="1.0" encoding="UTF-8"?>
<svg width="80px" height="80px" viewBox="0 0 80 80" version="1.1" xmlns="http://www.w3.org/2000/svg" xmlns:xlink="http://www.w3.org/1999/xlink">
    <!-- Generator: Sketch 52.4 (67378) - http://www.bohemiancoding.com/sketch -->
    <title>add</title>
    <desc>Created with Sketch.</desc>
    <g id="Page-1" stroke="none" stroke-width="1" fill="none" fill-rule="evenodd">
        <g id="finance-empty" transform="translate(-480.000000, -482.000000)" fill="#2C5EE6">
            <g id="main" transform="translate(47.000000, -189.000000)">
                <g id="section" transform="translate(271.000000, 276.000000)">
                    <g id="add" transform="translate(162.000000, 395.000000)">
                        <path d="M75,15 L20,15 C17.234375,15 15,17.234375 15,20 L15,75 C15,77.765625 17.234375,80 20,80 L75,80 C77.765625,80 80,77.765625 80,75 L80,20 C80,17.234375 77.765625,15 75,15 Z M75,75 L20,75 L20,20 L75,20 L75,75 Z" id="Shape" fill-rule="nonzero"></path>
                        <path d="M5,5 L60,5 L60,10 L65,10 L65,5 C65,2.234375 62.765625,0 60,0 L5,0 C2.234375,0 0,2.234375 0,5 L0,60 C0,62.765625 2.234375,65 5,65 L10,65 L10,60 L5,60 L5,5 Z" id="Path"></path>
                        <polygon id="Path" points="45 57.5 50 57.5 50 50 57.5 50 57.5 45 50 45 50 37.5 45 37.5 45 45 37.5 45 37.5 50 45 50"></polygon>
                    </g>
                </g>
            </g>
        </g>
    </g>
</svg>