<svg xmlns="http://www.w3.org/2000/svg" width="22" height="26" viewBox="0 0 22 26">
    <path fill="#000" fill-rule="nonzero" d="M10.961 14.03c-1.577-.026-2.853-.582-3.79-1.644-2.072-2.34-1.727-6.352-1.69-6.735.135-2.896 1.513-4.27 2.643-4.912C9.25.097 10.423 0 11.021 0h.091c1.087.022 2.062.28 2.896.76 1.12.642 2.476 2.017 2.61 4.891.039.383.383 4.395-1.69 6.735-.941 1.062-2.217 1.618-3.794 1.645h-.173zM6.92 5.787c-.006.032-.372 3.715 1.335 5.635.673.766 1.582 1.143 2.767 1.154h.053c1.19-.01 2.094-.388 2.773-1.154 1.711-1.93 1.335-5.597 1.33-5.635-.006-.01-.006-.027-.006-.043-.167-3.656-2.638-4.25-4.091-4.282h-.065c-1.173 0-3.913.416-4.091 4.282 0 .01-.005.027-.005.043zm15.08 14.877c.005.28.01 1.714-.258 2.43a.719.719 0 0 1-.278.338C21.303 23.533 17.45 26 11.008 26 4.565 26 .714 23.538.553 23.43a.69.69 0 0 1-.278-.338c-.284-.72-.279-2.155-.274-2.434v-.017c.006-.043.006-.086.006-.134.032-1.059.102-3.547 2.426-4.348a.673.673 0 0 1 .054-.016c2.426-.618 4.424-2.016 4.445-2.032a.72.72 0 0 1 1.007.178c.23.327.15.779-.177 1.01-.09.06-2.222 1.553-4.89 2.241-1.248.446-1.387 1.785-1.424 3.01 0 .048-.006.091-.006.134-.01.484.027 1.231.113 1.661.873.495 4.295 2.21 9.448 2.21 5.174 0 8.575-1.71 9.442-2.204.086-.43.118-1.177.113-1.661-.006-.043-.006-.086-.006-.135-.037-1.225-.176-2.563-1.424-3.01-2.668-.687-4.8-2.176-4.89-2.24a.726.726 0 0 1-.177-1.011.72.72 0 0 1 1.007-.177c.021.016 2.03 1.413 4.445 2.031.016.006.038.011.054.016 2.324.796 2.394 3.284 2.426 4.348 0 .049.006.092.006.135v.016z"/>
</svg>
