<?xml version="1.0" encoding="UTF-8"?>
<svg width="30px" height="28px" viewBox="0 0 30 28" version="1.1" xmlns="http://www.w3.org/2000/svg" xmlns:xlink="http://www.w3.org/1999/xlink">
    <!-- Generator: Sketch 52.4 (67378) - http://www.bohemiancoding.com/sketch -->
    <title>balance</title>
    <desc>Created with Sketch.</desc>
    <g id="Page-1" stroke="none" stroke-width="1" fill="none" fill-rule="evenodd">
        <g id="dashboard" transform="translate(-672.000000, -220.000000)" fill="#E74C3C">
            <g id="main" transform="translate(53.000000, -2.000000)">
                <g id="section" transform="translate(265.000000, 0.000000)">
                    <g id="head">
                        <g id="balance" transform="translate(354.000000, 222.000000)">
                            <path d="M29.4023438,9.99576271 L29.0039062,9.99576271 C28.6113281,7.99067797 26.6132812,4.46101695 25.7226562,2.96610169 C26.1386719,2.67542373 26.4082031,2.19491525 26.4082031,1.64322034 C26.4082031,0.759322034 25.6992188,0.0415254237 24.8261719,0.0415254237 C23.953125,0.0415254237 23.2441406,0.759322034 23.2441406,1.64322034 C23.2441406,2.18898305 23.5195312,2.67542373 23.9355469,2.96610169 C23.0507812,4.46101695 21.046875,7.99067797 20.6601563,9.99576271 L20.2617188,9.99576271 C19.9335938,9.99576271 19.6640625,10.2686441 19.6640625,10.6008475 C19.6640625,13.4898305 21.984375,15.8330508 24.8320312,15.8330508 C27.6796875,15.8330508 30,13.4838983 30,10.6008475 C30,10.2627119 29.7304688,9.99576271 29.4023438,9.99576271 Z M24.8320312,1.25169492 C25.0488281,1.25169492 25.21875,1.42966102 25.21875,1.64322034 C25.21875,1.85677966 25.0429688,2.03474576 24.8320312,2.03474576 C24.6210938,2.03474576 24.4453125,1.85677966 24.4453125,1.64322034 C24.4453125,1.42966102 24.6152344,1.25169492 24.8320312,1.25169492 Z M24.8261719,3.80847458 C25.8398438,5.53474576 27.3984375,8.41779661 27.7851562,9.99576271 L21.8730469,9.99576271 C22.2363281,8.51864407 23.6425781,5.82542373 24.8261719,3.80847458 Z M24.8320313,14.6228814 C22.8457031,14.6228814 21.1933594,13.1338983 20.9003906,11.2059322 L28.7636719,11.2059322 C28.4707031,13.1398305 26.8183594,14.6228814 24.8320313,14.6228814 Z" id="Shape" fill-rule="nonzero"></path>
                            <path d="M20.3203125,24.4822034 L18.7382812,24.4822034 L18.7382812,22.9457627 C18.7382812,22.6135593 18.46875,22.340678 18.140625,22.340678 L16.6230469,22.340678 L16.6230469,5.43983051 C17.015625,5.04830508 17.2675781,4.51440678 17.296875,3.92118644 L19.8222656,3.36949153 C20.1445313,3.29830508 20.3496094,2.9779661 20.2792969,2.65169492 C20.2089844,2.32542373 19.8925781,2.11779661 19.5703125,2.18898305 L17.0390625,2.74067797 C16.6582031,2.01101695 15.9023438,1.51271186 15.0292969,1.51271186 C13.8222656,1.51271186 12.8378906,2.46779661 12.7675781,3.6720339 L6.45117188,5.04830508 C6.15820312,4.65084746 5.6953125,4.38983051 5.16796875,4.38983051 C4.29492188,4.38983051 3.5859375,5.10762712 3.5859375,5.99152542 C3.5859375,6.53728814 3.86132812,7.02372881 4.27734375,7.31440678 C3.38671875,8.80932203 1.38867187,12.3330508 0.99609375,14.3381356 L0.59765625,14.3381356 C0.26953125,14.3381356 0,14.6110169 0,14.9432203 C0,17.8322034 2.3203125,20.1754237 5.16796875,20.1754237 C8.015625,20.1754237 10.3359375,17.8262712 10.3359375,14.9432203 C10.3359375,14.6110169 10.0664062,14.3381356 9.73828125,14.3381356 L9.33984375,14.3381356 C8.94726563,12.3330508 6.94921875,8.80338983 6.06445312,7.30847458 C6.421875,7.05932203 6.67382813,6.66779661 6.73828125,6.21694915 L13.0136719,4.84661017 C13.125,5.06610169 13.265625,5.26186441 13.4355469,5.4279661 L13.4355469,22.3288136 L11.9179687,22.3288136 C11.5898438,22.3288136 11.3203125,22.6016949 11.3203125,22.9338983 L11.3203125,24.470339 L9.73828125,24.470339 C9.41015625,24.470339 9.140625,24.7432203 9.140625,25.0754237 L9.140625,27.3415254 C9.140625,27.6737288 9.41015625,27.9466102 9.73828125,27.9466102 L20.3144531,27.9466102 C20.6425781,27.9466102 20.9121094,27.6737288 20.9121094,27.3415254 L20.9121094,25.0754237 C20.9179688,24.7491525 20.6484375,24.4822034 20.3203125,24.4822034 Z M5.16796875,5.6 C5.38476562,5.6 5.5546875,5.7779661 5.5546875,5.99152542 C5.5546875,6.20508475 5.37890625,6.38305085 5.16796875,6.38305085 C4.95703125,6.38305085 4.78125,6.20508475 4.78125,5.99152542 C4.78125,5.7779661 4.95703125,5.6 5.16796875,5.6 Z M5.16796875,18.9711864 C3.18164062,18.9711864 1.52929687,17.4822034 1.23632812,15.5542373 L9.09960938,15.5542373 C8.8125,17.4822034 7.16015625,18.9711864 5.16796875,18.9711864 Z M8.12695312,14.3381356 L2.21484375,14.3381356 C2.578125,12.8610169 3.984375,10.1737288 5.16796875,8.15677966 C6.18164062,9.88305085 7.74023437,12.7601695 8.12695312,14.3381356 Z M15.0292969,2.72288136 C15.6210938,2.72288136 16.1015625,3.20932203 16.1015625,3.80847458 C16.1015625,4.40762712 15.6210938,4.8940678 15.0292969,4.8940678 C14.4375,4.8940678 13.9570312,4.40762712 13.9570312,3.80847458 C13.9570312,3.20932203 14.4375,2.72288136 15.0292969,2.72288136 Z M15.4277344,6.06864407 L15.4277344,22.340678 L14.6308594,22.340678 L14.6308594,6.06864407 C14.7597656,6.09237288 14.8945312,6.10423729 15.0292969,6.10423729 C15.1699219,6.10423729 15.2988281,6.08644068 15.4277344,6.06864407 Z M12.515625,23.5508475 L17.5429688,23.5508475 L17.5429688,24.4822034 L12.515625,24.4822034 L12.515625,23.5508475 Z M19.7226563,26.7483051 L10.3417969,26.7483051 L10.3417969,25.6923729 L19.7226563,25.6923729 L19.7226563,26.7483051 Z" id="Shape" fill-rule="nonzero"></path>
                            <path d="M22.5820312,2.18898305 C22.5117187,1.86271186 22.1953125,1.65508475 21.8730469,1.72627119 L21.4394531,1.82118644 C21.1171875,1.89237288 20.9121094,2.21271186 20.9824219,2.53898305 C21.0410156,2.82372881 21.2929687,3.01949153 21.5683594,3.01949153 C21.609375,3.01949153 21.6503906,3.01355932 21.6972656,3.00762712 L22.1308594,2.91271186 C22.4472656,2.83559322 22.6523438,2.51525424 22.5820312,2.18898305 Z" id="Path"></path>
                        </g>
                    </g>
                </g>
            </g>
        </g>
    </g>
</svg>