<?xml version="1.0" encoding="UTF-8"?>
<svg width="22px" height="20px" viewBox="0 0 22 20" version="1.1" xmlns="http://www.w3.org/2000/svg" xmlns:xlink="http://www.w3.org/1999/xlink">
    <!-- Generator: Sketch 52.4 (67378) - http://www.bohemiancoding.com/sketch -->
    <title>caution-sign</title>
    <desc>Created with Sketch.</desc>
    <g id="Page-1" stroke="none" stroke-width="1" fill="none" fill-rule="evenodd">
        <g id="dashboard" transform="translate(-297.000000, -721.000000)" fill="#2C5EE6">
            <g id="main" transform="translate(53.000000, -2.000000)">
                <g id="section-copy" transform="translate(0.000000, 568.000000)">
                    <g id="table">
                        <g id="tr-copy" transform="translate(73.000000, 0.000000)">
                            <g id="caution-sign" transform="translate(171.000000, 155.000000)">
                                <path d="M21.8545455,18.8640483 L11.6666667,0.410876133 C11.5333333,0.16918429 11.2787879,0.0181268882 11,0.0181268882 C10.7212121,0.0181268882 10.4666667,0.16918429 10.3333333,0.410876133 L0.151515152,18.8640483 C0.0242424242,19.0996979 0.0242424242,19.3836858 0.163636364,19.6132931 C0.296969697,19.8429003 0.545454545,19.9818731 0.818181818,19.9818731 L21.1878788,19.9818731 C21.4545455,19.9818731 21.7030303,19.8429003 21.8424242,19.6132931 C21.9757576,19.3836858 21.9818182,19.0996979 21.8545455,18.8640483 Z M2.0969697,18.4773414 L11,2.34441088 L19.9030303,18.4773414 L2.0969697,18.4773414 Z" id="Shape" fill-rule="nonzero"></path>
                                <path d="M10.0545455,7.74018127 L10.0545455,13.2024169 C10.0545455,13.7220544 10.4787879,14.1510574 11.0060606,14.1510574 C11.5272727,14.1510574 11.9575758,13.7280967 11.9575758,13.2024169 L11.9575758,7.74018127 C11.9575758,7.21450151 11.5333333,6.79154079 11.0060606,6.79154079 C10.4787879,6.79154079 10.0545455,7.21450151 10.0545455,7.74018127 Z" id="Path"></path>
                                <path d="M11.0060606,15.1299094 C10.4545455,15.1299094 10.0060606,15.5770393 10.0060606,16.1268882 C10.0060606,16.6767372 10.4545455,17.1238671 11.0060606,17.1238671 C11.5575758,17.1238671 12.0060606,16.6767372 12.0060606,16.1268882 C12.0060606,15.5770393 11.5575758,15.1299094 11.0060606,15.1299094 Z" id="Path"></path>
                            </g>
                        </g>
                    </g>
                </g>
            </g>
        </g>
    </g>
</svg>