<svg xmlns="http://www.w3.org/2000/svg" width="423" height="127" viewBox="0 0 423 127">
    <g fill="none" fill-rule="evenodd">
        <g transform="translate(114)">
            <rect width="3" height="10" x="294" y="78" fill="#9D9D9D" rx="1"/>
            <circle cx="210" cy="104" r="19" fill="#9D9D9D"/>
            <circle cx="53" cy="104" r="19" fill="#9D9D9D"/>
            <path fill="#D8D8D8" d="M220.026 105H214v-4h-13V12h40a7 7 0 0 1 7 7h7l15.564 41 24.139 8.749V97H298v8h-40.026c-.52 10.029-8.816 18-18.974 18s-18.454-7.971-18.974-18z"/>
            <path fill="#9D9D9D" d="M214 98v5h-8V12h9v86h-1z"/>
            <path fill="#D8D8D8" d="M3 104H0v-8h3V0h203v104H104c0 10.493-8.507 19-19 19s-19-8.507-19-19H3z"/>
            <path fill="#6B6B6B" d="M105.296 37.951V31.91H72.933v21.847h20.644l2.253-2.239-1.609-1.599h-11.9l-6.113-6.077 5.79-5.757h21.552l1.746-.134zM72.933 58.076v6.014h32.363V42.243H84.572l-1.85 1.839 1.367 1.36h11.74l6.273 6.236-6.433 6.398H72.933zM109.228 28v40H69V28h40.228z"/>
            <path fill="#B0B0B0" d="M261.327 60h-36V31h26.028z"/>
            <path fill="#9D9D9D" d="M3 0h50v96H3z"/>
            <path fill="#6B6B6B" d="M8 8h40v88H8z"/>
            <path fill="#414040" d="M8 8h6v88H8z"/>
            <path fill="#9D9D9D" d="M225 64h7v4h-7z"/>
            <circle cx="85" cy="104" r="9.5" fill="#B0B0B0"/>
            <circle cx="239" cy="104" r="9.5" fill="#B0B0B0"/>
        </g>
        <path fill="#D8D8D8" d="M0 123h423v4H0zM11 99h27v24H11zM42 99h27v24H42zM71 99h27v24H71zM55 75h27v24H55zM22 75h27v24H22zM38 51h27v24H38z"/>
        <path fill="#9D9D9D" d="M11 99h5v24h-5zM42 99h5v24h-5zM71 99h5v24h-5zM54 75h6v24h-6zM22 75h5v24h-5zM38 51h5v24h-5z"/>
        <path fill="#6B6B6B" d="M43 51l4 7h22l-4-7zM43 51l-2.5 7h-5.769L38 51z"/>
    </g>
</svg>
