<?xml version="1.0" encoding="UTF-8"?>
<svg width="21px" height="24px" viewBox="0 0 21 24" version="1.1" xmlns="http://www.w3.org/2000/svg" xmlns:xlink="http://www.w3.org/1999/xlink">
    <!-- Generator: Sketch 52.4 (67378) - http://www.bohemiancoding.com/sketch -->
    <title>pets</title>
    <desc>Created with Sketch.</desc>
    <g id="Page-1" stroke="none" stroke-width="1" fill="none" fill-rule="evenodd">
        <g id="Artboard" transform="translate(-180.000000, -138.000000)" fill="#2C5EE6" fill-rule="nonzero">
            <g id="pets" transform="translate(180.000000, 138.000000)">
                <path d="M17.0919283,17.64375 C16.8659193,17.296875 15.2367713,14.75625 13.8336323,13.415625 C12.6659193,12.3 10.9237668,12.271875 10.726009,12.271875 C10.7071749,12.271875 10.6883408,12.271875 10.6695067,12.271875 L10.2457399,12.271875 C10.0573991,12.271875 8.38116592,12.3 7.15695067,13.396875 C5.65022422,14.75625 3.97399103,17.484375 3.86098655,17.68125 C2.97578475,19.078125 2.42959641,19.978125 2.42959641,20.990625 C2.42959641,22.809375 3.76681614,23.98125 5.83856502,23.98125 L15.1331839,23.98125 C17.2049327,23.98125 18.5327354,22.809375 18.5327354,20.990625 C18.5327354,19.978125 17.9865471,19.06875 17.1013453,17.671875 C17.1013453,17.6625 17.1013453,17.653125 17.0919283,17.64375 Z M15.1426009,22.575 L5.84798206,22.575 C5.10403587,22.575 3.85156951,22.36875 3.85156951,20.990625 C3.85156951,20.4 4.23766816,19.725 5.06636771,18.43125 C5.06636771,18.43125 5.07578475,18.421875 5.07578475,18.421875 C5.09461883,18.39375 6.73318386,15.69375 8.11748879,14.45625 C8.95560538,13.70625 10.2457399,13.6875 10.255157,13.6875 L10.735426,13.6875 C10.744843,13.6875 10.7636771,13.6875 10.7730942,13.6875 C10.9991031,13.696875 12.1573991,13.771875 12.8636771,14.4375 C14.2103139,15.73125 15.9053812,18.403125 15.9242152,18.43125 C15.9336323,18.440625 15.9430493,18.459375 15.9524664,18.46875 C16.8282511,19.846875 17.1390135,20.4375 17.1390135,20.990625 C17.1295964,22.303125 16.0466368,22.575 15.1426009,22.575 Z" id="Shape"></path>
                <path d="M7.08161435,8.128125 C8.67309417,8.128125 9.92556054,6.365625 9.92556054,4.10625 C9.92556054,1.85625 8.67309417,0.084375 7.08161435,0.084375 C5.49013453,0.09375 4.23766816,1.85625 4.23766816,4.115625 C4.23766816,6.365625 5.49013453,8.128125 7.08161435,8.128125 Z M7.08161435,1.5 C7.75964126,1.5 8.51300448,2.56875 8.51300448,4.115625 C8.51300448,5.653125 7.75964126,6.73125 7.08161435,6.73125 C6.40358744,6.73125 5.65022422,5.653125 5.65022422,4.115625 C5.65022422,2.56875 6.40358744,1.5 7.08161435,1.5 Z" id="Shape"></path>
                <path d="M3.36188341,12.965625 C3.64439462,12.965625 3.90807175,12.909375 4.1529148,12.796875 C5.39596413,12.225 5.73497758,10.425 4.93452915,8.7 C4.31300448,7.359375 3.16412556,6.46875 2.08116592,6.46875 C1.79865471,6.46875 1.53497758,6.525 1.29013453,6.6375 C0.0470852018,7.2 -0.301345291,9 0.499103139,10.734375 C1.1206278,12.065625 2.26950673,12.965625 3.36188341,12.965625 Z M1.78923767,10.14375 C1.30896861,9.1125 1.45022422,8.109375 1.88340807,7.9125 C1.93991031,7.884375 2.0058296,7.875 2.08116592,7.875 C2.52376682,7.875 3.23004484,8.371875 3.65381166,9.290625 C4.13408072,10.321875 3.99282511,11.325 3.55964126,11.521875 C3.50313901,11.55 3.43721973,11.559375 3.36188341,11.559375 C2.90986547,11.559375 2.21300448,11.0625 1.78923767,10.14375 Z" id="Shape"></path>
                <path d="M13.8995516,10.565625 C15.4910314,10.565625 16.7434978,8.803125 16.7434978,6.54375 C16.7434978,4.29375 15.4910314,2.521875 13.8995516,2.521875 C12.3080717,2.521875 11.0556054,4.284375 11.0556054,6.54375 C11.0556054,8.803125 12.3080717,10.565625 13.8995516,10.565625 Z M13.8995516,3.9375 C14.5775785,3.9375 15.3309417,5.00625 15.3309417,6.553125 C15.3309417,8.090625 14.5775785,9.16875 13.8995516,9.16875 C13.2215247,9.16875 12.4681614,8.1 12.4681614,6.553125 C12.4681614,5.00625 13.2215247,3.9375 13.8995516,3.9375 Z" id="Shape"></path>
                <path d="M19.6910314,9.065625 C19.4461883,8.953125 19.1825112,8.896875 18.9,8.896875 C17.8170404,8.896875 16.6681614,9.796875 16.0466368,11.128125 C15.2461883,12.853125 15.5852018,14.653125 16.8376682,15.234375 C17.0825112,15.346875 17.3461883,15.403125 17.6286996,15.403125 C18.7210762,15.403125 19.8605381,14.503125 20.4820628,13.171875 C21.2825112,11.446875 20.9340807,9.6375 19.6910314,9.065625 Z M19.1919283,12.58125 C18.7681614,13.5 18.0618834,13.996875 17.6192825,13.996875 C17.5439462,13.996875 17.4780269,13.9875 17.4215247,13.959375 C16.9789238,13.753125 16.8470852,12.759375 17.3273543,11.728125 C17.7511211,10.809375 18.4573991,10.3125 18.9,10.3125 C18.9753363,10.3125 19.0412556,10.321875 19.0977578,10.35 C19.5403587,10.546875 19.6721973,11.55 19.1919283,12.58125 Z" id="Shape"></path>
            </g>
        </g>
    </g>
</svg>