<svg xmlns="http://www.w3.org/2000/svg" width="16" height="16" viewBox="0 0 16 16">
    <path fill="#979797" fill-rule="nonzero" d="M15.1 5.954l.9.09v3.91l-.9.09-.876.088a6.557 6.557 0 0 1-.314.758l.559.684.572.7-.639.64-1.484 1.485-.64.64-.7-.573-.681-.557c-.247.121-.5.226-.76.316l-.087.875-.09.9H6.042l-.09-.9-.088-.875a6.532 6.532 0 0 1-.759-.316l-.68.557-.701.574-.64-.64L1.6 12.913l-.64-.64.573-.7.558-.683a6.493 6.493 0 0 1-.315-.759L.9 10.045l-.9-.09v-3.91l.9-.09.877-.088c.089-.259.193-.512.315-.758l-.56-.683-.572-.7.64-.64L3.082 1.6l.64-.64.701.574.68.557c.247-.122.5-.227.76-.316L5.95.901 6.041 0H9.96l.09.9.087.875c.26.09.512.195.759.316l.68-.558.701-.573.64.64 1.485 1.485.64.64-.573.7-.56.684c.121.246.226.499.315.758l.876.087zM8 11.362A3.366 3.366 0 0 0 11.362 8 3.366 3.366 0 0 0 8 4.638 3.366 3.366 0 0 0 4.638 8 3.366 3.366 0 0 0 8 11.362z"/>
</svg>
