<?xml version="1.0" encoding="UTF-8"?>
<svg width="26px" height="25px" viewBox="0 0 26 25" version="1.1" xmlns="http://www.w3.org/2000/svg" xmlns:xlink="http://www.w3.org/1999/xlink">
    <!-- Generator: Sketch 52.4 (67378) - http://www.bohemiancoding.com/sketch -->
    <title>Shape</title>
    <desc>Created with Sketch.</desc>
    <g id="Page-1" stroke="none" stroke-width="1" fill="none" fill-rule="evenodd">
        <g id="dashboard" transform="translate(-1320.000000, -223.000000)" fill="#F39C12" fill-rule="nonzero">
            <g id="main" transform="translate(53.000000, -2.000000)">
                <g id="header" transform="translate(266.000000, 5.000000)">
                    <g id="tile-copy-2" transform="translate(770.000000, 0.000000)">
                        <g id="icon">
                            <g id="star">
                                <path d="M256.964326,229.447549 C256.878944,229.184222 256.654817,228.996131 256.382662,228.953138 L248.271377,227.792347 L244.621299,220.403052 C244.498562,220.155847 244.247753,220 243.975598,220 C243.703443,220 243.452633,220.155847 243.329897,220.408426 L239.727846,227.819218 L231.616561,229.033749 C231.344406,229.076741 231.120278,229.264832 231.034896,229.52816 C230.949514,229.791488 231.024224,230.081685 231.221669,230.269776 L237.107687,236.014617 L235.746913,244.150903 C235.698885,244.424979 235.810949,244.699054 236.035077,244.860275 C236.157813,244.951634 236.307232,245 236.45665,245 C236.57405,245 236.686114,244.97313 236.792841,244.914015 L244.034298,241.050086 L251.297099,244.871023 C251.403827,244.924764 251.515891,244.951634 251.627954,244.951634 C252.022846,244.951634 252.348365,244.623818 252.348365,244.226139 C252.348365,244.167025 252.343028,244.113285 252.327019,244.059544 L250.923553,235.971625 L256.772217,230.19454 C256.980335,230.001075 257.049708,229.710877 256.964326,229.447549 Z M249.653497,235.203138 C249.482733,235.369733 249.408024,235.611565 249.450715,235.848022 L250.672744,242.904127 L244.365153,239.588349 C244.157034,239.475494 243.906225,239.480868 243.69277,239.588349 L237.406524,242.941745 L238.585862,235.874893 C238.623217,235.638435 238.548508,235.401978 238.377744,235.235383 L233.276172,230.24828 L240.314847,229.19497 C240.549647,229.157352 240.752429,229.012253 240.85382,228.797291 L243.980934,222.364574 L247.150739,228.781169 C247.257466,228.996131 247.460248,229.14123 247.695049,229.178848 L254.739059,230.189166 L249.653497,235.203138 Z" id="Shape"></path>
                            </g>
                        </g>
                    </g>
                </g>
            </g>
        </g>
    </g>
</svg>