<?xml version="1.0" encoding="UTF-8"?>
<svg width="38px" height="23px" viewBox="0 0 38 23" version="1.1" xmlns="http://www.w3.org/2000/svg" xmlns:xlink="http://www.w3.org/1999/xlink">
    <!-- Generator: Sketch 52.4 (67378) - http://www.bohemiancoding.com/sketch -->
    <title>delivery-truck</title>
    <desc>Created with Sketch.</desc>
    <g id="Page-1" stroke="none" stroke-width="1" fill="none" fill-rule="evenodd">
        <g id="dashboard" transform="translate(-756.000000, -253.000000)">
            <g id="main" transform="translate(53.000000, -2.000000)">
                <g id="section" transform="translate(265.000000, 113.000000)">
                    <g id="head">
                        <g id="delivery-truck" transform="translate(438.000000, 142.000000)">
                            <path d="M37.5481481,10.9964052 L35.362963,9.70359477 L34.1111111,4.28431373 C33.7777778,2.84117647 32.5259259,1.83398693 31.0666667,1.83398693 L24.7777778,1.83398693 L24.7777778,0.826797386 C24.7777778,0.405882353 24.437037,0.060130719 24.0222222,0.060130719 L0.755555556,0.060130719 C0.340740741,0.060130719 0,0.405882353 0,0.826797386 L0,19.0990196 C0,19.5199346 0.340740741,19.8656863 0.755555556,19.8656863 L3.18518519,19.8656863 C3.53333333,21.6169935 5.06666667,22.9398693 6.8962963,22.9398693 C8.72592593,22.9398693 10.2518519,21.6169935 10.6074074,19.8656863 L25.9037037,19.8656863 C26.2518519,21.6169935 27.7851852,22.9398693 29.6148148,22.9398693 C31.4444444,22.9398693 32.9703704,21.6169935 33.3259259,19.8656863 L37.1851852,19.8656863 C37.6,19.8656863 37.9407407,19.5199346 37.9407407,19.0990196 L37.9407407,11.6578431 C37.9259259,11.3872549 37.7851852,11.1392157 37.5481481,10.9964052 Z M6.88888889,21.4065359 C5.63703704,21.4065359 4.61481481,20.369281 4.61481481,19.0990196 C4.61481481,17.8287582 5.63703704,16.7915033 6.88888889,16.7915033 C8.14074074,16.7915033 9.16296296,17.8287582 9.16296296,19.0990196 C9.16296296,20.369281 8.14074074,21.4065359 6.88888889,21.4065359 Z M23.2666667,15.5813725 L16.4518519,15.5813725 C16.037037,15.5813725 15.6962963,15.9271242 15.6962963,16.3480392 C15.6962963,16.7689542 16.037037,17.1147059 16.4518519,17.1147059 L23.2666667,17.1147059 L23.2666667,18.3323529 L10.6,18.3323529 C10.2444444,16.5810458 8.71851852,15.2581699 6.88888889,15.2581699 C5.05925926,15.2581699 3.53333333,16.5810458 3.18518519,18.3323529 L1.51111111,18.3323529 L1.51111111,14.3637255 L23.2666667,14.3637255 L23.2666667,15.5813725 Z M23.2666667,2.60816993 L23.2666667,12.8379085 L1.51111111,12.8379085 L1.51111111,1.59346405 L23.2666667,1.59346405 L23.2666667,2.60816993 Z M29.162963,3.3748366 L31.0666667,3.3748366 C31.8222222,3.3748366 32.4666667,3.89346405 32.637037,4.6375817 L33.7407407,9.44052288 L29.1555556,9.44052288 L29.162963,3.3748366 Z M29.6,21.4065359 C28.4,21.4065359 27.4148148,20.4519608 27.3333333,19.2568627 C27.3407407,19.2042484 27.3481481,19.1591503 27.3481481,19.1065359 C27.3481481,19.0539216 27.3407407,19.0013072 27.3333333,18.9562092 C27.4148148,17.7535948 28.4,16.8065359 29.6,16.8065359 C30.8518519,16.8065359 31.8740741,17.8437908 31.8740741,19.1140523 C31.8740741,20.3843137 30.8518519,21.4065359 29.6,21.4065359 Z M36.4148148,14.6944444 L34.9777778,14.6944444 L34.9777778,13.8826797 L36.4148148,13.8826797 L36.4148148,14.6944444 Z M36.4148148,12.3493464 L34.2222222,12.3493464 C33.8074074,12.3493464 33.4666667,12.695098 33.4666667,13.1160131 L33.4666667,15.4611111 C33.4666667,15.8820261 33.8074074,16.2277778 34.2222222,16.2277778 L36.4148148,16.2277778 L36.4148148,18.3323529 L33.3111111,18.3323529 C32.962963,16.5810458 31.4296296,15.2581699 29.6,15.2581699 C27.7703704,15.2581699 26.2444444,16.5810458 25.8888889,18.3323529 L24.7777778,18.3323529 L24.7777778,3.3748366 L27.6518519,3.3748366 L27.6518519,10.2071895 C27.6518519,10.6281046 27.9925926,10.9738562 28.4074074,10.9738562 L34.4962963,10.9738562 L36.4148148,12.1013072 L36.4148148,12.3493464 Z" id="Shape" fill="#2C5EE6" fill-rule="nonzero"></path>
                            <path d="M13.9037037,15.5813725 L13.2666667,15.5813725 C12.8518519,15.5813725 12.5111111,15.9271242 12.5111111,16.3480392 C12.5111111,16.7689542 12.8518519,17.1147059 13.2666667,17.1147059 L13.9037037,17.1147059 C14.3185185,17.1147059 14.6592593,16.7689542 14.6592593,16.3480392 C14.6592593,15.9271242 14.3185185,15.5813725 13.9037037,15.5813725 Z" id="Path" fill="#000000"></path>
                        </g>
                    </g>
                </g>
            </g>
        </g>
    </g>
</svg>