<svg xmlns="http://www.w3.org/2000/svg" width="22" height="16" viewBox="0 0 22 16">
    <path fill="#ADADAC" fill-rule="nonzero" d="M20.103 7.806l-2.319-5.22-3.508-.012V0H3.074v2.664H0v1.194h3.074v1.57H.612v1.195h2.462v1.571h-1.85V9.39h1.85V13.7h2.307A2.608 2.608 0 0 0 7.961 16a2.603 2.603 0 0 0 2.581-2.3h3.996a2.608 2.608 0 0 0 2.58 2.3 2.603 2.603 0 0 0 2.58-2.3H22V8.135l-1.897-.328zM7.962 14.81c-.78 0-1.41-.633-1.41-1.415 0-.072.006-.137.012-.203.006-.042.012-.084.024-.12v-.011c.012-.036.018-.078.03-.114 0-.006 0-.006.006-.012.012-.036.03-.071.041-.107v-.006c.19-.418.571-.729 1.03-.819l.124-.017h.012c.041-.006.083-.006.125-.006.041 0 .083 0 .125.006h.011l.125.017a1.4 1.4 0 0 1 1.029.819v.006a.8.8 0 0 1 .048.12.632.632 0 0 1 .03.113v.012a1.13 1.13 0 0 1 .036.323A1.401 1.401 0 0 1 7.96 14.81zm2.443-2.299l-.035-.09v-.005l-.036-.09a2.61 2.61 0 0 0-2.028-1.517c-.017 0-.03-.006-.047-.006-.018 0-.042-.006-.06-.006-.023 0-.047-.006-.07-.006H8.08c-.042 0-.078-.006-.12-.006-.041 0-.077 0-.118.006h-.048c-.024 0-.047.006-.071.006-.018 0-.042.006-.06.006-.018 0-.03.006-.047.006a2.597 2.597 0 0 0-2.028 1.517l-.035.09v.006l-.036.09H4.263V9.394h3.074V8.2H4.263V6.63h2.462V5.434H4.263v-1.57h1.85V2.67h-1.85V1.194h8.824v11.312h-2.682v.006zm3.877-8.737l2.735.006 1.76 3.96h-4.489l-.006-3.966zm2.83 11.036c-.778 0-1.409-.633-1.409-1.415 0-.072.006-.137.012-.203.006-.042.012-.084.024-.12v-.011c.012-.036.018-.078.03-.114 0-.006 0-.006.006-.012.011-.036.03-.071.041-.107v-.006c.19-.418.571-.729 1.029-.819l.125-.017h.012c.041-.006.083-.006.124-.006.042 0 .084 0 .125.006h.012l.125.017a1.4 1.4 0 0 1 1.029.819v.006a.8.8 0 0 1 .047.12.632.632 0 0 1 .03.113v.012a1.13 1.13 0 0 1 .036.323 1.398 1.398 0 0 1-1.398 1.414zm3.699-2.299h-1.255l-.035-.09v-.005l-.036-.09a2.61 2.61 0 0 0-2.028-1.517c-.012 0-.03-.006-.047-.006-.018 0-.042-.006-.06-.006-.024 0-.047-.006-.071-.006h-.048c-.041 0-.077-.006-.119-.006-.041 0-.077 0-.118.006h-.048c-.024 0-.048.006-.071.006-.018 0-.042.006-.06.006-.018 0-.03.006-.047.006a2.597 2.597 0 0 0-2.028 1.517l-.036.09v.006l-.035.09h-.393V8.94h5.358l1.17.203v3.368h.007z"/>
</svg>