<?xml version="1.0" encoding="UTF-8"?>
<svg width="32px" height="24px" viewBox="0 0 32 24" version="1.1" xmlns="http://www.w3.org/2000/svg" xmlns:xlink="http://www.w3.org/1999/xlink">
    <!-- Generator: Sketch 52.4 (67378) - http://www.bohemiancoding.com/sketch -->
    <title>wallet</title>
    <desc>Created with Sketch.</desc>
    <g id="Page-1" stroke="none" stroke-width="1" fill="none" fill-rule="evenodd">
        <g id="dashboard" transform="translate(-1025.000000, -233.000000)" fill="#2ECC71">
            <g id="main" transform="translate(53.000000, -2.000000)">
                <g id="header" transform="translate(266.000000, 21.000000)">
                    <g id="tile-copy-2" transform="translate(466.000000, 32.000000)">
                        <g id="icon">
                            <g id="wallet" transform="translate(240.000000, 182.000000)">
                                <path d="M22.3125,2.41237113 L3.775,2.41237113 C3.425,2.41237113 3.1375,2.69690722 3.1375,3.04329897 C3.1375,3.38969072 3.425,3.6742268 3.775,3.6742268 L22.3125,3.6742268 C22.6625,3.6742268 22.95,3.38969072 22.95,3.04329897 C22.95,2.69690722 22.6625,2.41237113 22.3125,2.41237113 Z" id="Path"></path>
                                <path d="M26.2375,2.41237113 L25.4375,2.41237113 C25.0875,2.41237113 24.8,2.69690722 24.8,3.04329897 C24.8,3.38969072 25.0875,3.6742268 25.4375,3.6742268 L26.2375,3.6742268 C26.5875,3.6742268 26.875,3.38969072 26.875,3.04329897 C26.875,2.69690722 26.5875,2.41237113 26.2375,2.41237113 Z" id="Path"></path>
                                <path d="M31.3625,10.2742268 L30.46875,10.2742268 L30.46875,2.35670103 C30.46875,1.07010309 29.4125,0.0309278351 28.11875,0.0309278351 L3.08125,0.0309278351 C1.38125,0.0309278351 0,1.39793814 0,3.08041237 C0,3.08659794 0,3.09896907 0,3.10515464 C0,3.11134021 0,3.11134021 0,3.11752577 L0,20.2701031 C0,22.3113402 1.675,23.9690722 3.7375,23.9690722 L29.83125,23.9690722 C30.18125,23.9690722 30.46875,23.6845361 30.46875,23.3381443 L30.46875,18.414433 L31.3625,18.414433 C31.7125,18.414433 32,18.1298969 32,17.7835052 L32,10.9051546 C32,10.5587629 31.7125,10.2742268 31.3625,10.2742268 Z M3.08125,1.29278351 L28.1125,1.29278351 C28.70625,1.29278351 29.1875,1.76907216 29.1875,2.35670103 L29.1875,4.86804124 L3.08125,4.86804124 C2.0875,4.86804124 1.275,4.06391753 1.275,3.08041237 C1.275,2.09072165 2.0875,1.29278351 3.08125,1.29278351 Z M29.19375,22.7072165 L3.7375,22.7072165 C2.38125,22.7072165 1.275,21.6123711 1.275,20.2701031 L1.275,5.54845361 C1.78125,5.91340206 2.40625,6.12989691 3.08125,6.12989691 L29.19375,6.12989691 L29.19375,10.2742268 L25.56875,10.2742268 C23.3,10.2742268 21.45625,12.0989691 21.45625,14.3443299 C21.45625,16.5896907 23.3,18.414433 25.56875,18.414433 L29.19375,18.414433 L29.19375,22.7072165 Z M30.725,17.1587629 L25.56875,17.1587629 C24.00625,17.1587629 22.73125,15.8969072 22.73125,14.3505155 C22.73125,12.8041237 24.00625,11.542268 25.56875,11.542268 L30.725,11.542268 L30.725,17.1587629 Z" id="Shape" fill-rule="nonzero"></path>
                                <path d="M25.73125,12.5072165 C24.70625,12.5072165 23.86875,13.3360825 23.86875,14.3505155 C23.86875,15.3649485 24.70625,16.1938144 25.73125,16.1938144 C26.75625,16.1938144 27.59375,15.3649485 27.59375,14.3505155 C27.59375,13.3298969 26.75625,12.5072165 25.73125,12.5072165 Z M25.73125,14.9257732 C25.40625,14.9257732 25.14375,14.6659794 25.14375,14.3443299 C25.14375,14.0226804 25.40625,13.7628866 25.73125,13.7628866 C26.05625,13.7628866 26.31875,14.0226804 26.31875,14.3443299 C26.31875,14.6659794 26.05625,14.9257732 25.73125,14.9257732 Z" id="Shape" fill-rule="nonzero"></path>
                            </g>
                        </g>
                    </g>
                </g>
            </g>
        </g>
    </g>
</svg>