<?xml version="1.0" encoding="UTF-8"?>
<svg width="44px" height="44px" viewBox="0 0 44 44" version="1.1" xmlns="http://www.w3.org/2000/svg" xmlns:xlink="http://www.w3.org/1999/xlink">
    <!-- Generator: Sketch 52.4 (67378) - http://www.bohemiancoding.com/sketch -->
    <title>009-checked</title>
    <desc>Created with Sketch.</desc>
    <g id="company" stroke="none" stroke-width="1" fill="none" fill-rule="evenodd">
        <g id="company-requirements" transform="translate(-1540.000000, -754.000000)" fill="#2C5EE6">
            <g id="slider" transform="translate(-3898.000000, -260.000000)">
                <g id="content" transform="translate(4289.000000, 434.000000)">
                    <g id="009-checked" transform="translate(1149.000000, 580.000000)">
                        <path d="M21.9739645,43.947929 C9.85877712,43.947929 0,34.0891519 0,21.9739645 C0,9.85877712 9.85877712,0 21.9739645,0 C34.0891519,0 43.947929,9.85877712 43.947929,21.9739645 C43.947929,34.0891519 34.0891519,43.947929 21.9739645,43.947929 Z M21.9739645,3.5147929 C11.7940828,3.5147929 3.5147929,11.7940828 3.5147929,21.9739645 C3.5147929,32.1538462 11.7940828,40.4331361 21.9739645,40.4331361 C32.1538462,40.4331361 40.4331361,32.1538462 40.4331361,21.9739645 C40.4331361,11.7940828 32.1538462,3.5147929 21.9739645,3.5147929 Z" id="Shape" fill-rule="nonzero"></path>
                        <path d="M19.3790927,28.1617357 C18.9104536,28.1617357 18.4678501,27.9794872 18.1293886,27.6497041 L14.4063116,23.8919132 C14.0765286,23.5534517 13.8942801,23.1108481 13.9029586,22.6422091 C13.9029586,22.17357 14.0938856,21.7309665 14.4236686,21.4011834 C14.7534517,21.0800789 15.1960552,20.8978304 15.6560158,20.8978304 C16.1246548,20.8978304 16.5672584,21.0800789 16.9057199,21.4185404 L19.3964497,23.9179487 L27.0595661,16.2895464 C27.3893491,15.9597633 27.8319527,15.7775148 28.3005917,15.7775148 C28.7692308,15.7775148 29.2118343,15.9597633 29.5416174,16.2895464 C30.2185404,16.9838264 30.2098619,18.0946746 29.5329389,18.7715976 L20.6114398,27.6497041 C20.2816568,27.9794872 19.8477318,28.1617357 19.3790927,28.1617357 Z" id="Path"></path>
                    </g>
                </g>
            </g>
        </g>
    </g>
</svg>