<?xml version="1.0" encoding="UTF-8"?>
<svg width="120px" height="120px" viewBox="0 0 120 120" version="1.1" xmlns="http://www.w3.org/2000/svg" xmlns:xlink="http://www.w3.org/1999/xlink">
    <!-- Generator: Sketch 52.4 (67378) - http://www.bohemiancoding.com/sketch -->
    <title>desert</title>
    <desc>Created with Sketch.</desc>
    <g id="personal" stroke="none" stroke-width="1" fill="none" fill-rule="evenodd">
        <g id="personal-summary" transform="translate(-665.000000, -1069.000000)">
            <g id="items" transform="translate(388.000000, 813.000000)">
                <g id="item-copy-8" transform="translate(277.000000, 0.000000)">
                    <g id="desert" transform="translate(0.000000, 256.000000)">
                        <path d="M59.8842105,0 C92.9553216,0 119.766082,26.863125 119.766082,60.0011719 C119.766082,93.136875 92.9553216,120 59.8842105,120 C26.8107602,120 0,93.136875 0,60.0011719 C0,26.863125 26.8107602,0 59.8842105,0 Z" id="Path" fill="#FFEFC1"></path>
                        <path d="M17.3078363,61.3082812 L17.3078363,62.3613281 C17.3146199,65.0376562 17.5157895,65.6259375 17.8905263,67.2215625 L17.9178947,67.216875 C21.125848,86.0489063 36.6605848,100.666406 55.908538,102.435938 L56.068538,102.451875 C56.3221053,102.4725 56.5780117,102.493125 56.8339181,102.511406 L57.1721637,102.532031 C57.3892398,102.547969 57.6063158,102.559453 57.825731,102.570938 C57.9651462,102.577734 58.1066667,102.580078 58.2484211,102.586875 C58.4449123,102.591562 58.6369591,102.600703 58.8334503,102.6075 C59.0596491,102.612187 59.285848,102.612187 59.5120468,102.614297 C59.6217544,102.616641 59.7335673,102.618984 59.8432749,102.618984 L59.8935673,102.618984 C60.2112281,102.618984 60.5309942,102.612187 60.848655,102.6075 L60.9995322,102.605156 C61.3010526,102.593672 61.6004678,102.582188 61.899883,102.568594 L62.1534503,102.557109 C62.4184795,102.541172 62.685848,102.525 62.9508772,102.506719 L63.325614,102.476953 C63.4991813,102.461016 63.6706433,102.447188 63.8421053,102.428906 C82.9207018,100.647891 98.3436257,86.2432031 101.700117,67.6286719 C102.109006,66.0307031 102.113684,65.5317188 102.319298,62.9995313 L102.367251,62.9995313 C102.374035,62.836875 102.376374,62.6791406 102.378713,62.5211719 L102.378713,62.5073438 L102.378713,62.4958594 L102.378713,62.4867188 L102.378713,62.4616406 L102.378713,62.4501563 L102.378713,62.4386719 L102.378713,62.4271875 L102.378713,62.4157031 L102.378713,62.38125 L102.378713,62.3674219 L102.378713,62.3559375 L102.378713,62.3467969 L102.378713,62.3329688 L102.381053,62.3329688 L102.381053,62.3214844 L102.381053,62.31 L102.381053,62.2985156 L102.381053,62.2870313 L102.381053,62.2732031 L102.381053,62.2640625 L102.381053,62.2525781 C102.648421,59.0749219 102.234854,53.8530469 101.158596,49.8145313 L101.10152,49.5970313 C96.4678363,31.0877344 79.7539181,17.3791406 59.8435088,17.3791406 C39.4509942,17.3791406 22.4128655,31.760625 18.2701754,50.9521875 C18.2654971,50.968125 18.2610526,50.9819531 18.2563743,50.9957813 L18.1878363,51.256875 L18.1466667,51.4148438 L18.071345,51.6942188 C17.545731,53.8689844 17.3789474,56.4651563 17.328655,58.7315625 C17.317193,59.1550781 17.3080702,59.57625 17.3080702,59.9997656 L17.3080702,60.0799219 C17.3078363,60.5139844 17.3078363,60.9236719 17.3078363,61.3082812 Z" id="Path" fill="#FFF1C7"></path>
                        <path d="M2.50432749,62.1325781 C2.50432749,62.1325781 11.0063158,53.6688281 17.1136842,52.8400781 C23.2210526,52.0113281 35.4383626,60.7703906 40.5497076,61.2442969 C45.6610526,61.7182031 60.2453801,46.329375 65.9780117,48.9344531 C71.7129825,51.5374219 84.9265497,58.9961719 92.2790643,60.2985937 C99.634152,61.5989062 110.729357,47.2769531 115.963977,45.6194531 C116.617544,45.4134375 117.266433,45.2371875 117.90386,45.0928125 C119.119298,49.8592969 119.766082,54.8545313 119.766082,60.0009375 C119.766082,61.9286719 119.672515,63.8332031 119.494269,65.715 C94.1047953,70.5614062 32.0477193,79.7510156 18.6102924,74.2657031 C5.00608187,68.7119531 2.50432749,62.1325781 2.50432749,62.1325781 Z" id="Path" fill="#FFDF81"></path>
                        <path d="M0.070877193,62.9245312 C3.45473684,60.3375 11.8402339,57.5240625 17.5730994,61.4317969 C22.6547368,64.8932813 23.6119298,65.1977344 26.9069006,64.3849219 C42.288655,54.4605469 50.2194152,57.7092188 57.4853801,66.6283594 C66.3438596,74.4419531 83.7019883,70.2157031 87.9564912,74.0022656 C92.2109942,77.7911719 86.8940351,78.9747656 86.8940351,78.9747656 L5.3328655,84.7877344 C2.28935673,78.0686719 0.443274854,70.6900781 0.070877193,62.9245312 Z" id="Path" fill="#FFB54C"></path>
                        <path d="M119.747836,58.4671875 C109.874854,59.4173438 100.70807,53.6985938 84.5288889,61.9286719 C67.6893567,70.4953125 46.8353216,81.0194531 50.1506433,80.3967187 C53.4088889,79.7807812 94.0474854,77.2260937 117.547602,76.2323437 C118.991579,71.0676562 119.766316,65.6259375 119.766316,60.0009375 C119.766082,59.4883594 119.759298,58.9778906 119.747836,58.4671875 Z" id="Path" fill="#FF9675"></path>
                        <path d="M2.08140351,75.7221094 L117.684444,75.7221094 C110.791111,101.231953 87.5265497,120 59.8842105,120 C32.2395322,120 8.97497076,101.231953 2.08140351,75.7221094 Z" id="Path" fill="#FFDF81"></path>
                        <path d="M103.575439,101.025937 L67.805848,80.3350781 L65.7335673,79.1355469 L59.8294737,75.7221094 L52.1546199,80.1611719 L49.611462,81.6309375 L16.154152,100.987266 C27.0825731,112.685625 42.6287719,120 59.8842105,120 C77.1190643,120 92.6493567,112.703906 103.575439,101.025937 Z" id="Path" fill="#4D4D4D"></path>
                        <g id="Group" transform="translate(19.181287, 75.703125)" fill-rule="nonzero">
                            <path d="M78.8945029,30.5104688 L40.6479532,0.018984375 L81.1747368,28.5166406 C80.4322807,29.1986719 79.671345,29.865 78.8945029,30.5104688 Z M2.70081871,30.6684375 C1.83953216,29.9610938 1.00093567,29.2260938 0.182923977,28.4730469 L40.1796491,0.332578125 L40.6479532,0.018984375 L2.70081871,30.6684375 Z" id="Shape" fill="#FFFFFF"></path>
                            <path d="M36.9078363,39.2076563 L38.4432749,23.1021094 L42.6269006,23.1021094 L44.0046784,39.2076563 L36.9078363,39.2076563 Z M38.8271345,19.0935938 L39.597193,11.0167969 L41.5897076,11.0167969 L42.2821053,19.0935938 L38.8271345,19.0935938 Z M39.7569591,9.35695313 L40.1111111,5.64585938 L41.1300585,5.64585938 L41.4477193,9.35695313 L39.7569591,9.35695313 Z M40.1887719,4.83117188 L40.4173099,2.44101563 L40.8559064,2.44101563 L41.0615205,4.83117188 L40.1887719,4.83117188 Z M40.4652632,1.9396875 L40.6479532,0.018984375 L40.8123977,1.9396875 L40.4652632,1.9396875 Z" id="Shape" fill="#FFC928"></path>
                        </g>
                        <path d="M59.6236257,24.6539062 C65.7424561,24.6539062 70.702924,29.6240625 70.702924,35.7548437 C70.702924,41.8832812 65.7424561,46.8534375 59.6236257,46.8534375 C53.5071345,46.8534375 48.5466667,41.8832813 48.5466667,35.7548438 C48.5466667,29.6240625 53.5071345,24.6539062 59.6236257,24.6539062 Z" id="Path" fill="#FF9B7C"></path>
                        <g id="Group" transform="translate(22.923977, 8.906250)" fill="#FECBBC">
                            <path d="M12.6079532,23.4764062 C13.7207018,23.4764062 14.7693567,23.6939062 15.6994152,24.0808594 C16.7047953,23.2680469 18.0802339,22.7646094 19.5997661,22.7646094 C22.2297076,22.7646094 24.4346199,24.2709375 25.0264327,26.2947656 C26.3403509,26.6221875 27.3957895,27.4439062 27.8755556,28.4971875 C28.0332164,28.48125 28.1953216,28.4742187 28.3576608,28.4742187 C30.7864327,28.4742187 32.7583626,30.1042969 32.7583626,32.1142969 C32.7583626,34.1242969 30.7864327,35.754375 28.3576608,35.754375 C27.5990643,35.754375 26.8863158,35.5940625 26.2647953,35.3170312 C25.7300585,36.8303906 24.0416374,37.9338281 22.04,37.9338281 C20.8175439,37.9338281 19.7118129,37.5217969 18.9120468,36.8554687 C18.1146199,37.5215625 17.008655,37.9338281 15.7840936,37.9338281 C14.6233918,37.9338281 13.5653801,37.5607031 12.7773099,36.9517969 C11.9752047,37.6797656 10.8168421,38.1353906 9.53052632,38.1353906 C8.32631579,38.1353906 7.23415205,37.7369531 6.44140351,37.0891406 C6.07812865,37.1554687 5.69871345,37.1899219 5.31274854,37.1899219 C2.4154386,37.1899219 0.069005848,35.2485937 0.069005848,32.8563281 C0.069005848,30.4617187 2.41567251,28.5203906 5.31274854,28.5203906 C5.47040936,28.5203906 5.62807018,28.5271875 5.78105263,28.5386719 C6.15321637,25.6900781 9.06877193,23.4764062 12.6079532,23.4764062 Z" id="Path"></path>
                            <path d="M67.8196491,35.2413281 C68.2446784,35.2413281 68.6467836,35.3238281 69.0009357,35.4726562 C69.3847953,35.1614062 69.9125146,34.9689844 70.4928655,34.9689844 C71.4982456,34.9689844 72.3412865,35.5436719 72.5674854,36.3196875 C73.0701754,36.4432031 73.4722807,36.7570312 73.6573099,37.1599219 C73.7167251,37.1552344 73.7784795,37.1507812 73.84,37.1507812 C74.7700585,37.1507812 75.5239766,37.7735156 75.5239766,38.5427344 C75.5239766,39.3119531 74.7700585,39.9346875 73.84,39.9346875 C73.5497076,39.9346875 73.2778947,39.8751562 73.0402339,39.7675781 C72.8369591,40.3467187 72.1901754,40.768125 71.4247953,40.768125 C70.9564912,40.768125 70.5338012,40.6101562 70.2297076,40.3560937 C69.9235088,40.6101562 69.5008187,40.768125 69.0346199,40.768125 C68.5890058,40.768125 68.1845614,40.6260937 67.8853801,40.3926562 C67.5768421,40.6720312 67.1335673,40.8459375 66.6423392,40.8459375 C66.1808187,40.8459375 65.7649123,40.6926562 65.4610526,40.4453906 C65.3216374,40.4704687 65.1777778,40.4842969 65.0292398,40.4842969 C63.9232749,40.4842969 63.0254971,39.7425 63.0254971,38.8267969 C63.0254971,37.9110937 63.9235088,37.1692969 65.0292398,37.1692969 C65.0909942,37.1692969 65.1504094,37.1716406 65.2098246,37.1760937 C65.3520468,36.0883594 66.4671345,35.2413281 67.8196491,35.2413281 Z" id="Path"></path>
                            <path d="M46.6023392,0.649453125 C47.2877193,0.649453125 47.9345029,0.784453125 48.5078363,1.02257812 C49.1270175,0.52125 49.9747368,0.212109375 50.9115789,0.212109375 C52.531462,0.212109375 53.8909942,1.13929688 54.254269,2.386875 C55.0631579,2.5884375 55.714386,3.09421875 56.0112281,3.74226562 C56.1071345,3.733125 56.2053801,3.7284375 56.3059649,3.7284375 C57.8025731,3.7284375 59.0180117,4.7334375 59.0180117,5.971875 C59.0180117,7.2103125 57.8025731,8.21320312 56.3059649,8.21320312 C55.8397661,8.21320312 55.4011696,8.11710938 55.0173099,7.9453125 C54.6881871,8.8771875 53.6463158,9.55710937 52.4126316,9.55710937 C51.6608187,9.55710937 50.980117,9.30304687 50.4865497,8.893125 C49.9953216,9.3028125 49.314386,9.55710937 48.5604678,9.55710937 C47.8453801,9.55710937 47.1918129,9.328125 46.7073684,8.95265625 C46.211462,9.40125 45.4987135,9.68296875 44.705731,9.68296875 C43.9630409,9.68296875 43.291462,9.43570312 42.8023392,9.03726562 C42.5784795,9.07851562 42.3452632,9.09914062 42.1078363,9.09914062 C40.3211696,9.09914062 38.8748538,7.9040625 38.8748538,6.4275 C38.8748538,4.95328125 40.3211696,3.75820313 42.1078363,3.75820313 C42.2037427,3.75820313 42.2996491,3.76054688 42.3957895,3.7696875 C42.6243275,2.01398438 44.4203509,0.649453125 46.6023392,0.649453125 Z" id="Path"></path>
                            <path d="M81.7094737,12.8835937 C82.2509942,12.8835937 82.774269,12.9454687 83.2699415,13.0553906 C86.3178947,16.775625 88.9272515,20.8689844 91.020117,25.2574219 C90.6591813,25.3511719 90.2729825,25.4015625 89.8753216,25.4015625 C88.8152047,25.4015625 87.8577778,25.044375 87.1677193,24.4675781 C86.4753216,25.044375 85.5181287,25.4015625 84.460117,25.4015625 C83.4523977,25.4015625 82.5363743,25.0764844 81.8554386,24.5521875 C81.1609357,25.1817187 80.1578947,25.5754687 79.0451462,25.5754687 C78.0009357,25.5754687 77.0573099,25.2321094 76.3695906,24.6689062 C76.054269,24.7260937 75.7274854,24.7582031 75.3915789,24.7582031 C72.8851462,24.7582031 70.851462,23.0777344 70.851462,21.00375 C70.851462,18.931875 72.8849123,17.2516406 75.3915789,17.2516406 C75.528655,17.2516406 75.665731,17.2584375 75.7983626,17.2675781 C76.1207018,14.8021875 78.6430409,12.8835937 81.7094737,12.8835937 Z" id="Path"></path>
                        </g>
                    </g>
                </g>
            </g>
        </g>
    </g>
</svg>