<?xml version="1.0" encoding="UTF-8"?>
<svg width="53px" height="35px" viewBox="0 0 53 35" version="1.1" xmlns="http://www.w3.org/2000/svg" xmlns:xlink="http://www.w3.org/1999/xlink">
    <!-- Generator: Sketch 52.4 (67378) - http://www.bohemiancoding.com/sketch -->
    <title>id-card</title>
    <desc>Created with Sketch.</desc>
    <g id="company" stroke="none" stroke-width="1" fill="none" fill-rule="evenodd">
        <g id="company-summary" transform="translate(-1072.000000, -1787.000000)" fill="#2C5EE6">
            <g id="features" transform="translate(179.000000, 1264.000000)">
                <g id="item-copy-2" transform="translate(663.000000, 250.000000)">
                    <g id="id-card" transform="translate(230.000000, 273.000000)">
                        <path d="M49.6241484,0.0136227545 L3.37585156,0.0136227545 C1.51443359,0.0136227545 0,1.54670659 0,3.4310479 L0,31.5689521 C0,33.4532934 1.51443359,34.9863772 3.37585156,34.9863772 L49.6241484,34.9863772 C51.4855664,34.9863772 53,33.4532934 53,31.5689521 L53,3.4310479 C53,1.54670659 51.4855664,0.0136227545 49.6241484,0.0136227545 Z M50.7494668,31.5688473 C50.7494668,32.1969611 50.2446211,32.708024 49.6241484,32.708024 L3.37585156,32.708024 C2.75537891,32.708024 2.2505332,32.1969611 2.2505332,31.5688473 L2.2505332,3.43094311 C2.2505332,2.80282934 2.75537891,2.29176647 3.37585156,2.29176647 L49.6241484,2.29176647 C50.2446211,2.29176647 50.7494668,2.80282934 50.7494668,3.43094311 L50.7494668,31.5688473 Z" id="Shape" fill-rule="nonzero"></path>
                        <path d="M43.6946699,10.0081138 L31.6180195,10.0081138 C30.9965117,10.0081138 30.4927012,10.5182335 30.4927012,11.1472904 C30.4927012,11.7764521 30.9965117,12.2864671 31.6180195,12.2864671 L43.6946699,12.2864671 C44.3161777,12.2864671 44.8199883,11.7764521 44.8199883,11.1472904 C44.8199883,10.5182335 44.3161777,10.0081138 43.6946699,10.0081138 Z" id="Path"></path>
                        <path d="M43.6946699,16.3608234 L31.6180195,16.3608234 C30.9965117,16.3608234 30.4927012,16.8708383 30.4927012,17.5 C30.4927012,18.1290569 30.9965117,18.6391766 31.6180195,18.6391766 L43.6946699,18.6391766 C44.3161777,18.6391766 44.8199883,18.1290569 44.8199883,17.5 C44.8199883,16.8708383 44.3161777,16.3608234 43.6946699,16.3608234 Z" id="Path"></path>
                        <path d="M43.6946699,22.7135329 L31.6180195,22.7135329 C30.9965117,22.7135329 30.4927012,23.2236527 30.4927012,23.8527096 C30.4927012,24.4817665 30.9965117,24.9918862 31.6180195,24.9918862 L43.6946699,24.9918862 C44.3161777,24.9918862 44.8199883,24.4817665 44.8199883,23.8527096 C44.8199883,23.2236527 44.3161777,22.7135329 43.6946699,22.7135329 Z" id="Path"></path>
                        <path d="M20.7804512,21.0883383 C20.7576777,21.0867665 18.6981309,21.1736377 18.1418379,18.9181287 C18.8934648,18.3192515 19.5241855,17.4871108 19.9748926,16.4932784 C20.0082246,16.4966317 20.0415566,16.5008234 20.0746816,16.5008234 C20.381502,16.5007186 20.6785918,16.3592515 20.8738223,16.1053443 C21.8188164,14.8766766 22.3102051,13.2813473 22.2576191,11.6131886 C22.1483066,8.15468563 19.7714844,5.4282485 16.8425098,5.39618263 C16.7623887,5.39293413 16.6910664,5.39502994 16.6334082,5.39712575 C16.6320625,5.39712575 16.6307168,5.39723054 16.6292676,5.39723054 C15.9186328,5.08547904 15.1700078,4.9394012 14.3985059,4.96507485 C12.7492949,5.01841317 11.2361035,5.84541916 10.1380098,7.29383234 C9.08577344,8.68157186 8.53910742,10.4873204 8.59883594,12.378997 C8.60898047,12.6990269 8.63403125,12.9941168 8.67419531,13.2736976 C8.78319727,14.0791168 9.00265039,14.8512126 9.32644727,15.5682934 C9.48203125,15.9129491 9.81286719,16.1427545 10.1867656,16.1653892 C10.2885215,16.171991 10.3884141,16.1614072 10.4844766,16.1380389 C10.9427402,17.2879042 11.6351562,18.2447455 12.4725977,18.9127844 C11.9273809,21.164521 9.85572266,21.0870808 9.83305273,21.0885479 C7.61895703,21.1619012 5.83983398,23.0067365 5.83983398,25.265494 L5.83983398,29.4166617 C5.83983398,29.9829491 6.29323242,30.4419311 6.85263086,30.4419311 L23.7607695,30.4419311 C24.320168,30.4419311 24.7735664,29.9829491 24.7735664,29.4166617 L24.7735664,25.265494 C24.7736699,23.0065269 22.9944434,21.1616916 20.7804512,21.0883383 Z M10.6934746,13.0807784 C10.6888164,13.0494461 10.6843652,13.0179042 10.6800176,12.9863623 C10.649791,12.775524 10.6312617,12.5551497 10.6236016,12.312979 C10.5786758,10.8939072 10.9769004,9.55479042 11.7449863,8.54209581 C12.4666973,7.59007485 13.4323945,7.04757485 14.4635137,7.01414671 C14.4975703,7.01299401 15.306959,6.94812874 15.9877812,7.3554491 C16.1303223,7.4407485 16.3049531,7.46621257 16.4696465,7.46212575 C16.4904531,7.4616018 16.7939609,7.44609281 16.8092812,7.4461976 C18.6239102,7.4582485 20.160082,9.35684132 20.2333711,11.6784731 C20.2418594,11.9444311 20.2313008,12.2072455 20.2027305,12.4642964 C19.5324668,11.2996557 18.5368535,10.3978293 17.3520137,9.89347305 C17.0973652,9.78522455 16.8100059,9.78679641 16.5565996,9.89797904 C16.3030898,10.0092665 16.105582,10.2206287 16.0097266,10.4829192 C15.9315723,10.6969012 15.8365449,10.9054341 15.727543,11.1029641 C15.4616113,11.5843713 14.9175332,11.8682485 14.3077227,11.8488623 C14.1864023,11.8446707 14.0638398,11.8444611 13.9432441,11.8483383 C13.3497891,11.8676198 12.7710332,11.9821557 12.2189844,12.1903743 C11.6675566,12.4012126 11.1550508,12.700494 10.6934746,13.0807784 Z M12.1049102,14.5689072 C12.3615254,14.3769311 12.643502,14.2349401 12.9305508,14.1104491 C13.4539258,13.8832635 14.1611445,13.8956287 14.2376426,13.8983533 C15.54225,13.9432036 16.7331973,13.3252545 17.3959043,12.2725299 C17.9126543,12.6733533 18.3394492,13.2132335 18.6371602,13.852979 C18.3235078,16.1538623 16.9089668,17.9042814 15.3038535,17.9042814 C13.8718184,17.9042814 12.5865684,16.5330988 12.1049102,14.5689072 Z M14.3303926,19.8392365 C14.6473574,19.9148952 14.972707,19.9547156 15.3038535,19.9547156 C15.6381055,19.9547156 15.9654219,19.9145808 16.2834219,19.8395509 C16.6098066,20.8945808 17.2953906,21.7899102 18.1936992,22.3800898 C17.761625,23.5837126 16.618502,24.4275898 15.3068555,24.4275898 C13.995209,24.4275898 12.8520859,23.5837126 12.4199082,22.379985 C13.3184238,21.7897006 14.0040078,20.8943713 14.3303926,19.8392365 Z M7.86553125,28.3912874 L7.86553125,25.2653892 C7.86553125,24.0907934 8.80949023,23.1353144 9.96979688,23.1353144 C9.99298438,23.1353144 10.3624316,23.1138323 10.520707,23.0922455 C11.2417969,25.0834731 13.1352012,26.4781287 15.306752,26.4781287 C17.4783027,26.4781287 19.371707,25.0834731 20.0927969,23.0922455 C20.2512793,23.1138323 20.620416,23.1353144 20.6436035,23.1353144 C21.8040137,23.1353144 22.7478691,24.0908982 22.7478691,25.2653892 L22.7478691,28.3912874 L7.86553125,28.3912874 Z" id="Shape" fill-rule="nonzero"></path>
                    </g>
                </g>
            </g>
        </g>
    </g>
</svg>