<?xml version="1.0" encoding="UTF-8"?>
<svg width="120px" height="120px" viewBox="0 0 120 120" version="1.1" xmlns="http://www.w3.org/2000/svg" xmlns:xlink="http://www.w3.org/1999/xlink">
    <!-- Generator: Sketch 52.4 (67378) - http://www.bohemiancoding.com/sketch -->
    <title>map</title>
    <desc>Created with Sketch.</desc>
    <g id="personal" stroke="none" stroke-width="1" fill="none" fill-rule="evenodd">
        <g id="personal-summary" transform="translate(-1146.000000, -1055.000000)">
            <g id="items" transform="translate(388.000000, 813.000000)">
                <g id="item-copy-8" transform="translate(277.000000, 0.000000)">
                    <g id="map" transform="translate(481.000000, 242.000000)">
                        <path d="M60,0 C93.1373437,0 120,26.8626563 120,60 C120,93.1373437 93.1373437,120 60,120 C26.8626563,120 0,93.1373437 0,60 C0,26.8626563 26.8626563,0 60,0 Z" id="Path" fill="#64B3F5"></path>
                        <path d="M53.0627344,3.38015625 C53.5640625,3.38015625 54.0370313,3.49875 54.4558594,3.71039063 C54.9091406,3.26625 55.5302344,2.9925 56.2153125,2.9925 C57.4007813,2.9925 58.395,3.81328125 58.6607812,4.91765625 C59.2535156,5.09601562 59.7290625,5.54367187 59.9460938,6.11765625 C60.0175781,6.10945312 60.0895313,6.10640625 60.163125,6.10640625 C61.2583594,6.10640625 62.1473438,6.99492187 62.1473438,8.09109375 C62.1473438,9.18679688 61.2583594,10.0748438 60.163125,10.0748438 C59.8211719,10.0748438 59.5005469,9.98835937 59.2202344,9.83695313 C58.9785938,10.6621875 58.2173438,11.2640625 57.3145313,11.2640625 C56.76375,11.2640625 56.265,11.0390625 55.9052344,10.6760156 C55.545,11.0388281 55.04625,11.2640625 54.4947656,11.2640625 C53.9714063,11.2640625 53.4942188,11.0603906 53.1386719,10.72875 C52.7767969,11.1248438 52.2548438,11.3744531 51.675,11.3744531 C51.1317188,11.3744531 50.64,11.1569531 50.2823438,10.80375 C50.1180469,10.8398438 49.9474219,10.8583594 49.7728125,10.8583594 C48.4671094,10.8583594 47.4089063,9.80015625 47.4089063,8.4946875 C47.4089063,7.18851562 48.4671094,6.1303125 49.7728125,6.1303125 C49.8442969,6.1303125 49.9146094,6.1340625 49.9842188,6.140625 C50.1517969,4.588125 51.4659375,3.38015625 53.0627344,3.38015625 Z" id="Path" fill="#FFFFFF"></path>
                        <path d="M44.3240625,4.18757812 C46.798125,4.18757812 48.8032031,6.19265625 48.8032031,8.66648437 C48.8032031,11.1398438 46.798125,13.1449219 44.3240625,13.1449219 C41.8502344,13.1449219 39.8451563,11.1398438 39.8451563,8.66648437 C39.8451563,6.19265625 41.8502344,4.18757812 44.3240625,4.18757812 Z" id="Path" fill="#FFFF00"></path>
                        <path d="M35.7841406,9.62882813 C36.1788281,9.62882813 36.5519531,9.72210938 36.8814844,9.88875 C37.2384375,9.53929687 37.7275781,9.3234375 38.2678125,9.3234375 C39.2017969,9.3234375 39.9846094,9.97054688 40.1946094,10.8400781 C40.6617187,10.98 41.0360156,11.3327344 41.2071094,11.7860156 C41.2628906,11.7794531 41.3198437,11.776875 41.3777344,11.776875 C42.2404687,11.776875 42.94125,12.4764844 42.94125,13.3401563 C42.94125,14.2035938 42.2407031,14.9036719 41.3777344,14.9036719 C41.1089062,14.9036719 40.8555469,14.8354688 40.6347656,14.7157031 C40.4446875,15.3653906 39.8444531,15.8397656 39.133125,15.8397656 C38.6992969,15.8397656 38.30625,15.6625781 38.0228906,15.3766406 C37.7395312,15.6628125 37.34625,15.8397656 36.9119531,15.8397656 C36.4992187,15.8397656 36.1232812,15.6796875 35.8441406,15.4183594 C35.5584375,15.7307813 35.1471094,15.9267188 34.6903125,15.9267188 C34.2621094,15.9267188 33.8749219,15.7560938 33.5929687,15.4774219 C33.4640625,15.5057813 33.3288281,15.5203125 33.1914844,15.5203125 C32.1632812,15.5203125 31.3296094,14.6866406 31.3296094,13.6579688 C31.3296094,12.6297656 32.1632812,11.7953906 33.1914844,11.7953906 C33.2477344,11.7953906 33.30375,11.7986719 33.3578906,11.8033594 C33.4900781,10.5799219 34.52625,9.62882813 35.7841406,9.62882813 Z" id="Path" fill="#FFFFFF"></path>
                        <path d="M101.472187,38.143125 L109.448906,38.2778906 L112.431797,38.0641406 L114.77625,36.6789844 L115.445156,37.0371094 C112.919297,30.9452344 109.419844,25.3607812 105.139687,20.4752344 L102.569062,20.9714062 L96.9030469,16.1932031 L93.5610937,10.2564844 L93.5020312,10.2173437 L92.7503906,13.2253125 L91.8839062,21.7835156 L91.5016406,23.7984375 L87.8116406,19.0471875 L86.9285156,19.8466406 L82.2825,16.4950781 L78.7305469,18.0105469 L77.2164844,17.5413281 L70.4664844,19.4252344 L68.4839063,17.7492187 L65.9772656,18.8636719 L64.3244531,17.2239844 L56.3524219,24.1523437 L54.8378906,23.8907812 L49.6178906,23.8907812 L48.0346875,21.8388281 L45.3365625,22.6919531 L34.3045312,19.7322656 L23.4222656,20.5167187 L19.9825781,18.1492969 L17.3557031,17.7965625 C10.5810938,24.6414844 5.44546875,33.1094531 2.57695313,42.5636719 L4.6996875,42.6883594 L12.1434375,38.9339063 L16.0303125,37.8794531 L17.9404688,38.735625 L24.7378125,33.58875 L28.5735938,33.58875 L32.3039063,32.3104687 L37.2424219,35.6346094 L39.219375,34.3884375 L42.5784375,36.8908594 L44.5544531,34.7175 L46.2435938,33.7490625 L55.3589063,42.3588281 L60.6946875,44.071875 L64.7786719,40.6450781 L67.0844531,41.3709375 L74.1330469,36.6278906 L78.2835938,38.4070313 L79.8651563,37.6823438 L87.50625,40.6450781 L88.8232031,39.2632031 L94.8182813,38.1426563 L97.6509375,38.9992969 L101.472187,38.143125 Z" id="Path" fill="#B1D7B3"></path>
                        <path d="M115.445156,37.0373438 C117.278672,41.4590625 118.599141,46.145625 119.331562,51.02625 L118.945547,51.1675781 L117.362812,53.7407813 L114.789609,54.3344531 L108.259219,58.4404688 L102.421406,60.4192969 L98.46375,55.0764844 L93.8128125,51.860625 L90.4982812,52.7013281 L89.1625781,55.1753906 L86.0948437,56.0667188 L85.4517187,58.9202344 L81.8407031,62.3491406 L80.0594531,60.0246094 L77.4367969,58.39125 L76.3980469,56.1157031 L66.1080469,49.8311719 L53.9374219,55.8682031 L49.2864844,51.6630469 L45.8725781,54.4401563 L42.1621875,60.8153906 L31.7233594,61.2396094 L25.588125,59.5785938 L22.2246094,57.5997656 L18.661875,58.5897656 L15.99,57.8967188 L12.6264844,54.8301563 L10.1519531,54.4828125 L5.89734375,57.2039063 L2.8303125,59.1822656 L0.4059375,59.1822656 L0.00703125,59.4571875 C0.0590625,53.5853906 0.953671875,47.9160938 2.57695313,42.5629687 L4.6996875,42.688125 L12.1434375,38.9336719 L16.0303125,37.8792187 L17.9404688,38.7353906 L24.7378125,33.5885156 L28.5735938,33.5885156 L32.3039062,32.3102344 L37.2424219,35.634375 L39.219375,34.3882031 L42.5784375,36.890625 L44.5544531,34.7172656 L46.2435937,33.7488281 L55.3589062,42.3585937 L60.6946875,44.0716406 L64.7786719,40.6448437 L67.0844531,41.3707031 L74.1330469,36.6276562 L78.2835938,38.4067969 L79.8651563,37.6821094 L87.50625,40.6448437 L88.8232031,39.2629687 L94.8182813,38.1424219 L97.6509375,38.9990625 L101.472422,38.1424219 L109.449141,38.2771875 L112.432031,38.0634375 L114.776484,36.6782812 L115.445156,37.0373438 Z" id="Path" fill="#AED489"></path>
                        <path d="M119.331563,51.02625 C119.770547,53.9538281 120,56.9505469 120,60 C120,65.4309375 119.274141,70.6905469 117.922266,75.69375 L115.309219,77.2408594 L110.118281,73.3696875 L108.735937,74.4225 L102.611953,69.2207812 L100.240547,68.8910156 L94.5932812,70.5435937 L92.2230469,68.7628125 L89.720625,70.8726562 L86.4773437,69.5498437 L84.3046875,70.0764844 L80.9460937,71.7229687 L79.8267187,73.633125 L76.4685937,75.3452344 L74.0048437,75.5786719 L66.1961719,79.6917187 L59.0617969,76.3127344 L56.0554687,77.2544531 L54.2763281,74.2914844 L48.9426562,75.8060156 L44.79375,71.5260937 L39.328125,69.2214844 L36.3307031,70.4571094 L34.4346094,68.7520312 L28.9680469,72.76875 L27.2779687,71.7229687 L23.7876562,76.9910156 L15.886875,77.3203125 L9.6065625,73.0141406 L5.02453125,73.2417187 L1.93429688,71.4159375 L1.17679688,71.8717969 C0.40640625,68.0341406 0,64.0645312 0,60 C0,59.8185937 0.005390625,59.6388281 0.00703125,59.4574219 L0.4059375,59.1825 L2.8303125,59.1825 L5.89734375,57.2041406 L10.1519531,54.4823437 L12.6264844,54.8296875 L15.99,57.89625 L18.661875,58.5892969 L22.2246094,57.5992969 L25.588125,59.578125 L31.7233594,61.2391406 L42.1621875,60.8149219 L45.8725781,54.4396875 L49.2864844,51.6625781 L53.9374219,55.8677344 L66.1080469,49.8307031 L76.3980469,56.1152344 L77.4367969,58.3907813 L80.0594531,60.0241406 L81.8407031,62.3486719 L85.4517187,58.9197656 L86.0948438,56.06625 L89.1625781,55.1749219 L90.4982813,52.7008594 L93.8128125,51.8601563 L98.46375,55.0760156 L102.421406,60.4188281 L108.259219,58.44 L114.789609,54.3339844 L117.362813,53.7403125 L118.945547,51.1671094 L119.331563,51.02625 Z" id="Path" fill="#86B850"></path>
                        <path d="M28.9680469,72.76875 L27.2779688,71.7229688 L23.7876563,76.9910156 L15.886875,77.3203125 L9.6065625,73.0141406 L5.02453125,73.2417187 L1.93429688,71.4159375 L1.17679688,71.8717969 C6.68648438,99.3220312 30.9271875,120 60,120 C87.7066406,120 111.0225,101.218828 117.9225,75.6935156 L115.309453,77.240625 L110.118516,73.3694531 L108.736172,74.4222656 L102.612187,69.2205469 L100.240781,68.8907813 L94.5935156,70.5433594 L92.2232812,68.7625781 L89.7208594,70.8724219 L86.4775781,69.5496094 L84.3049219,70.07625 L80.9463281,71.7227344 L79.8269531,73.6328906 L76.4688281,75.345 L74.0050781,75.5784375 L66.1964062,79.6914844 L59.0620312,76.3125 L56.0557031,77.2542187 L54.2765625,74.29125 L48.9428906,75.8057812 L44.7939844,71.5258594 L39.3283594,69.22125 L36.3309375,70.456875 L34.4348437,68.7517969 L28.9680469,72.76875 Z" id="Path" fill="#5E9234"></path>
                        <g id="Group" transform="translate(21.328125, 15.234375)">
                            <g transform="translate(0.000000, 12.656250)" fill="#FFFFFF" id="Path">
                                <polygon points="26.6889844 60.6630469 0.191015625 69.6147656 0.191015625 10.8902344 26.6889844 1.93804688"></polygon>
                                <polygon points="81.474375 58.8724219 54.976875 67.8246094 54.976875 9.09984375 81.474375 0.148125"></polygon>
                                <polygon points="54.976875 67.8246094 26.6889844 60.6630469 26.6889844 1.93804688 54.976875 9.09984375"></polygon>
                                <polygon points="54.976875 12.9492188 26.6889844 5.60859375 26.6889844 5.57859375 3.77179688 13.4601563 3.77179688 64.625625 26.6889844 56.7836719 26.6889844 56.7841406 54.976875 63.975 77.8935938 56.3025 77.8935938 5.13726563"></polygon>
                            </g>
                            <g transform="translate(9.375000, 18.046875)" fill="#86B850" fill-rule="nonzero" id="Shape">
                                <path d="M19.4055469,0.76078125 C19.9659375,4.16671875 20.6151562,7.99523438 21.0021094,9.90164063 C25.4376563,9.25101563 31.1355469,8.38804688 32.3207812,8.07796875 L31.3478906,3.86015625 L19.4055469,0.76078125 Z M32.8971094,4.26164062 L34.7819531,13.2058594 L47.0922656,13.5546094 L55.0830469,7.47304687 L55.9661719,4.02539062 L45.6021094,7.55859375 L32.8971094,4.26164062 Z"></path>
                                <path d="M15.9508594,12.0869531 C16.4599219,15.0761719 16.888125,17.5619531 16.9553906,17.8535156 L16.9455469,17.8539844 C16.9703906,17.9840625 16.9851562,18.061875 16.9851562,18.061875 L11.4049219,18.9271875 L11.2263281,17.4949219 L15.2046094,16.7678906 L12.7396875,1.76085938 L0.00890625,6.13898438 L9.256875,27.879375 L24.8329688,25.5515625 L33.7300781,14.1839063 L32.6772656,9.62226563 L15.9508594,12.0869531 Z M14.12625,1.28484375 C14.3667188,2.71617187 15.065625,6.87070312 15.7094531,10.6652344 C16.2053906,10.5949219 17.6507812,10.3889062 19.4974219,10.1207812 L17.8964063,0.368671875 L17.3139844,0.217734375 L17.3139844,0.1875 L14.12625,1.28484375 Z"></path>
                            </g>
                            <g transform="translate(3.750000, 25.312500)" fill="#BBBBBB">
                                <polygon id="Path" points="0.021796875 8.79703125 5.92195312 8.79703125 1.92515625 0.1490625 0.021796875 0.80390625"></polygon>
                                <path d="M11.0599219,26.1527344 L6.00632812,22.4955469 L1.83164062,29.9132813 L1.05117187,29.4740625 L5.27625,21.9677344 L0.021796875,18.1657031 L0.021796875,33.406875 L7.72054688,34.7580469 L11.0599219,26.1527344 Z M0.021796875,17.0608594 L11.394375,25.2897656 L12.3752344,22.7622656 L6.33539063,9.69234375 L0.021796875,9.69234375 L0.021796875,17.0608594 Z" id="Shape" fill-rule="nonzero"></path>
                            </g>
                            <path d="M15.4771875,73.276875 L15.7675781,70.2757031 L11.29125,63.8301563 C11.29125,63.8301563 6.21234375,62.7257813 3.77179688,62.3385938 L3.77179688,77.2816406 L15.4771875,73.276875 Z" id="Path" fill="#86B850"></path>
                            <polygon id="Path" fill="#BBBBBB" points="19.8853125 69.5596875 20.2525781 71.6421094 26.6889844 69.4399219 26.6889844 69.4403906 41.5328906 73.2135937 41.7276563 66.8735156 32.2385156 65.0833594"></polygon>
                            <g transform="translate(42.890625, 63.046875)" fill="#86B850" id="Path">
                                <polygon points="15.0042187 8.48179688 0.172734375 8.48179688 0.131484375 10.5452344 12.08625 13.584375 17.7164062 11.6992969"></polygon>
                                <polygon points="8.03460938 0.212578125 0.269296875 3.64804687 0.1903125 7.58648438 14.2497656 7.58648438"></polygon>
                            </g>
                            <g transform="translate(49.921875, 18.046875)" fill="#BBBBBB">
                                <polygon id="Path" points="12.1685156 39.24 14.8232812 44.053125 19.8860156 41.1489844 17.161875 36.3754687"></polygon>
                                <polygon id="Path" points="23.1848438 4.24664062 27.9717188 9.0871875 27.9717188 0.13171875"></polygon>
                                <polygon id="Path" points="15.8353125 27.4535156 20.4675 35.6671875 27.9717188 31.0129687 27.9717188 19.9263281"></polygon>
                                <polygon id="Path" points="27.9717188 10.9141406 22.2084375 5.08640625 16.2002344 10.2508594 22.8435938 21.5948438 27.9717188 18.4146094"></polygon>
                                <polygon id="Path" points="11.3735156 26.2307812 6.350625 27.6759375 7.55414062 32.74875 6.30445312 33.0457031 5.1140625 28.0319531 0.041953125 29.4907031 2.36929687 43.4554688 16.5578906 35.3165625"></polygon>
                                <path d="M25.8602344,51.6189844 L20.4890625,42.2055469 L14.266875,45.7567969 L13.6790625,44.7089062 L13.7090625,44.6917969 L11.0538281,39.879375 L2.559375,44.7527344 L11.9125781,56.2886719 L25.8602344,51.6189844 Z M27.9717188,32.5249219 L21.099375,36.7872656 L27.9717188,48.9728906 L27.9717188,32.5249219 Z" id="Shape" fill-rule="nonzero"></path>
                                <polygon id="Path" points="15.21 11.1023438 9.42046875 16.0790625 15.2034375 26.3339062 21.7511719 22.2724219"></polygon>
                            </g>
                            <g transform="translate(3.750000, 17.578125)" fill="#606060">
                                <polygon id="Path" points="8.61539062 17.4267188 8.61539062 16.5314062 5.92195312 16.5314062 0.021796875 16.5314062 0.021796875 17.4267188 6.33539063 17.4267188"></polygon>
                                <polygon id="Path" points="0.021796875 25.9000781 5.27625 29.7021094 1.05117188 37.2086719 1.83164062 37.6476562 6.00632813 30.2299219 11.0599219 33.8871094 11.2996875 34.0603125 11.8244531 33.3351563 11.394375 33.0241406 0.021796875 24.7952344"></polygon>
                                <path d="M74.1435938,31.4817187 L66.639375,36.1357031 L62.0071875,27.9222656 L74.1435937,20.3950781 L74.1435937,18.8833594 L69.0154687,22.0635937 L62.3723437,10.7196094 L68.3803125,5.55492187 L74.1435937,11.3826563 L74.1435937,9.55570313 L69.3569531,4.71515625 L74.1435937,0.600234375 L74.1435937,0.21515625 L68.1972656,2.24179688 L67.4634375,2.8003125 L67.2358594,2.56992188 L66.4971094,2.82164063 L66.0827344,3.23132813 L66.4328906,3.58523438 L60.7082813,7.94179688 L52.7175,14.0233594 L52.4803125,14.2042969 L54.6117188,16.6401563 L55.5239063,23.1555469 L57.5458594,26.6992969 L62.7304688,35.7850781 L48.5416406,43.9239844 L47.9535938,44.2610156 L47.8253906,44.1028125 L46.75125,45.1774219 L47.1759375,45.6810937 L53.3913281,53.055 L39.331875,53.055 L38.8741406,53.055 L38.3367187,53.9503125 L39.3142969,53.9503125 L54.1455469,53.9503125 L56.8577344,57.1678125 L58.0849219,56.7571875 L48.7317187,45.22125 L57.2261719,40.3478906 L59.8814062,45.1603125 L59.8514062,45.1774219 L60.4392187,46.2253125 L66.6614062,42.6740625 L72.0325781,52.0875 L74.1440625,51.3803906 L74.1440625,49.4411719 L67.2717187,37.2555469 L74.1440625,32.9932031 L74.1440625,31.4817187 L74.1435938,31.4817187 Z M55.5923437,16.5478125 L61.381875,11.5710938 L67.9230469,22.7411719 L61.3753125,26.8024219 L55.5923437,16.5478125 Z M60.9951562,44.521875 L58.3403906,39.7089844 L63.33375,36.8442187 L66.0578906,41.6179687 L60.9951562,44.521875 Z" id="Shape" fill-rule="nonzero"></path>
                            </g>
                            <path d="M40.723125,21.9067969 L41.6960156,26.1246094 C40.5107813,26.4349219 34.8128906,27.2976562 30.3773438,27.9482813 C29.9903906,26.041875 29.3411719,22.2135938 28.7807813,18.8074219 L27.2716406,18.4155469 L28.8726562,28.1676563 C27.0260156,28.4357813 25.580625,28.6417969 25.0846875,28.7121094 C24.4408594,24.9175781 23.7419531,20.7628125 23.5014844,19.3317188 L22.1151562,19.8077344 L24.5800781,34.8147656 L20.6017969,35.5417969 L20.7803906,36.9740625 L26.360625,36.10875 C26.360625,36.10875 26.345625,36.0309375 26.3210156,35.9008594 L26.3308594,35.9003906 C26.2635937,35.6088281 25.8353906,33.1232813 25.3263281,30.1338281 L42.0527344,27.6691406 L43.1055469,32.2307813 L43.4838281,33.8725781 L44.383125,34.0507031 L44.5926562,33.7516406 L44.6854687,33.7586719 L44.1571875,31.2527344 L42.2723438,22.3085156 L40.723125,21.9067969 Z" id="Path" fill="#FFFFFF"></path>
                            <polygon id="Path" fill="#BBBBBB" points="32.5973438 48.6117188 26.4689062 49.5478125 25.7571094 55.0207031 24.4830469 54.8547656 25.1470313 49.7503125 19.7060156 50.5814063 15.4089844 61.5028125 18.27375 64.7252344 31.1648438 61.3235156"></polygon>
                            <polygon id="Path" fill="#86B850" points="44.3828906 34.0509375 37.4310937 43.9570313 58.9153125 40.018125 56.2300781 34.6474219 44.6852344 33.7586719 44.5924219 33.751875"></polygon>
                            <g transform="translate(34.921875, 47.812500)" fill="#BBBBBB" id="Path">
                                <polygon points="1.25625 1.15734375 0.825703125 5.27507813 12.7171875 5.27507813 11.9983594 0.08296875"></polygon>
                                <polygon points="0.002109375 13.1528906 7.34320313 15.1225781 13.6094531 11.720625 13.0146094 7.42359375 0.60140625 7.42359375"></polygon>
                            </g>
                            <g transform="translate(24.375000, 43.593750)" fill="#606060" id="Path">
                                <path d="M33.1010156,7.201875 L31.8975,2.12882813 L31.4374219,0.1903125 C31.0980469,0.46734375 30.7045312,0.67125 30.2585156,0.78796875 L30.6611719,2.48484375 L31.8515625,7.49859375 L33.1010156,7.201875 Z"></path>
                                <path d="M1.38210937,11.4269531 L2.09414063,5.9540625 L2.31210938,4.28085937 C1.89703125,4.419375 1.456875,4.47070312 0.99796875,4.42148438 L0.7725,6.1565625 L0.108515625,11.2610156 L1.38210937,11.4269531 Z"></path>
                            </g>
                            <path d="M43.2142969,0.062578125 C37.2367969,0.062578125 32.3910937,4.90875 32.3910937,10.8857813 C32.3910937,19.531875 43.2142969,34.5072656 43.2142969,34.5072656 C43.2142969,34.5072656 54.0386719,20.0758594 54.0386719,10.8857813 C54.0386719,4.90875 49.1922656,0.062578125 43.2142969,0.062578125 Z M43.2142969,19.1721094 C38.6385937,19.1721094 34.9289062,15.4624219 34.9289062,10.8855469 C34.9289062,6.3103125 38.6385937,2.60015625 43.2142969,2.60015625 C47.7904687,2.60015625 51.4996875,6.3103125 51.4996875,10.8855469 C51.4996875,15.4624219 47.7904688,19.1721094 43.2142969,19.1721094 Z" id="Shape" fill="#F3501E" fill-rule="nonzero"></path>
                            <path d="M43.2555469,0.062578125 C43.2276563,0.062578125 43.2147656,0.06421875 43.2147656,0.0646875 L43.2147656,2.6025 C43.2147656,2.6025 43.228125,2.60039062 43.2555469,2.60039062 C47.83125,2.60039062 51.5205469,6.31054687 51.5205469,10.8857813 C51.5205469,15.4626562 47.8420313,19.1723437 43.2663281,19.1723437 C43.2384375,19.1723437 43.2147656,19.1702344 43.2147656,19.1702344 L43.2147656,34.3919531 C43.2147656,34.4674219 43.2555469,34.5072656 43.2555469,34.5072656 C43.2555469,34.5072656 54.0799219,20.0758594 54.0799219,10.8857813 C54.0799219,4.90875 49.2330469,0.062578125 43.2555469,0.062578125 Z" id="Path" fill-opacity="0.6" fill="#E54A18"></path>
                        </g>
                        <path d="M64.5428906,17.8347656 C59.9667187,17.8347656 56.2570312,21.5449219 56.2570312,26.1201563 C56.2570312,30.6963281 59.9667187,34.4060156 64.5428906,34.4060156 C64.56,34.4060156 64.5773437,34.4060156 64.5944531,34.4060156 C69.1457812,34.378125 72.8278125,30.6792187 72.8278125,26.1201563 C72.8278125,21.5589844 69.140625,17.8572656 64.584375,17.8347656 L64.5428906,17.8347656 Z" id="Path" fill="#FFFFFF"></path>
                    </g>
                </g>
            </g>
        </g>
    </g>
</svg>