<?xml version="1.0" encoding="UTF-8"?>
<svg width="41px" height="41px" viewBox="0 0 41 41" version="1.1" xmlns="http://www.w3.org/2000/svg" xmlns:xlink="http://www.w3.org/1999/xlink">
    <!-- Generator: Sketch 52.4 (67378) - http://www.bohemiancoding.com/sketch -->
    <title>Path</title>
    <desc>Created with Sketch.</desc>
    <g id="company" stroke="none" stroke-width="1" fill="none" fill-rule="evenodd">
        <g id="company-summary" transform="translate(-1414.000000, -1915.000000)" fill="#2C5EE6">
            <g id="tag-(1)" transform="translate(1414.000000, 1915.000000)">
                <path d="M38.9287785,2.02028986 C37.6979296,0.789440994 36.000207,0.0763975155 34.1496894,0.00848861284 C32.3925466,-0.0594202899 30.5929607,0.432919255 28.963147,1.43457557 C28.2416149,1.87598344 28.0124224,2.81821946 28.4538302,3.53126294 C28.8952381,4.25279503 29.8374741,4.48198758 30.5505176,4.04057971 C32.7660455,2.68240166 35.321118,2.74182195 36.7641822,4.18488613 C37.6130435,5.03374741 38.0035197,6.26459627 37.8592133,7.64824017 C37.7064182,9.15072464 36.9679089,10.6277433 35.7795031,11.8161491 C34.5910973,13.0045549 33.1055901,13.7430642 31.6115942,13.8958592 C30.2279503,14.031677 28.9971014,13.6412008 28.1482402,12.8008282 C27.5964803,12.2490683 26.8664596,11.9519669 26.0939959,11.9519669 C25.3130435,11.9519669 24.5830228,12.2575569 24.0312629,12.8008282 C23.4795031,13.352588 23.1824017,14.0826087 23.1824017,14.8635611 C23.1824017,15.6445135 23.4879917,16.3745342 24.0397516,16.926294 C24.5915114,17.4780538 25.3215321,17.7751553 26.0939959,17.7751553 C26.8749482,17.7751553 27.6049689,17.4695652 28.1567288,16.926294 C28.2755694,16.8074534 28.3859213,16.6801242 28.4792961,16.5443064 C29.2857143,16.8329193 30.1515528,16.9857143 31.068323,16.9857143 C31.3484472,16.9857143 31.63706,16.9687371 31.9256729,16.9432712 C31.9511387,16.9432712 31.9766046,16.9347826 32.0020704,16.9347826 L32.2652174,20.7461698 C32.3246377,21.6120083 32.0020704,22.4608696 31.3908903,23.0805383 L17.1554865,37.2989648 C16.3575569,38.0968944 15.0503106,38.0968944 14.252381,37.2989648 L3.65010352,26.6966874 C3.25962733,26.3062112 3.04741201,25.7884058 3.04741201,25.2451346 C3.04741201,24.6933747 3.25962733,24.184058 3.65010352,23.7935818 L17.8770186,9.56666667 C18.4881988,8.95548654 19.33706,8.63291925 20.2028986,8.69233954 L32.8424431,9.53271222 C33.6828157,9.59213251 34.4128364,8.95548654 34.4722567,8.10662526 C34.531677,7.26625259 33.8950311,6.53623188 33.0461698,6.47681159 L20.4066253,5.63643892 C18.6664596,5.51759834 16.9517598,6.16273292 15.720911,7.40207039 L1.49399586,21.6289855 C0.526293996,22.5966874 0,23.8784679 0,25.2451346 C0,26.6118012 0.534782609,27.8935818 1.49399586,28.8612836 L12.0877847,39.4550725 C13.0809524,40.4482402 14.3966874,40.9490683 15.7039337,40.9490683 C17.0111801,40.9490683 18.3184265,40.4482402 19.3200828,39.4550725 L33.5469979,25.2281573 C34.7863354,23.9888199 35.43147,22.2741201 35.3126294,20.5254658 L35.0070393,16.0604555 C36.0766046,15.5511387 37.0697723,14.8465839 37.952588,13.9722567 C39.6333333,12.2915114 40.6859213,10.152381 40.9066253,7.95383023 C41.1358178,5.63643892 40.4312629,3.53126294 38.9287785,2.02028986 Z" id="Path"></path>
            </g>
        </g>
    </g>
</svg>