<?xml version="1.0" encoding="UTF-8"?>
<svg width="69px" height="30px" viewBox="0 0 69 30" version="1.1" xmlns="http://www.w3.org/2000/svg" xmlns:xlink="http://www.w3.org/1999/xlink">
    <!-- Generator: Sketch 52.4 (67378) - http://www.bohemiancoding.com/sketch -->
    <title>Shape</title>
    <desc>Created with Sketch.</desc>
    <g id="company" stroke="none" stroke-width="1" fill="none" fill-rule="evenodd">
        <g id="company-summary" transform="translate(-1429.000000, -1782.000000)" fill="#2C5EE6" fill-rule="nonzero">
            <g id="features" transform="translate(179.000000, 1264.000000)">
                <g id="item-copy-2" transform="translate(1088.000000, 250.000000)">
                    <g id="truck" transform="translate(162.000000, 268.000000)">
                        <path d="M68.806681,16.4773869 L65.743319,6.13567839 C65.2971983,4.6281407 63.9439655,3.61809045 62.3974138,3.61809045 L55.8394397,3.61809045 C55.2297414,3.61809045 54.7241379,4.13065327 54.7241379,4.74874372 L54.7241379,7.2361809 L52.1961207,7.2361809 L52.1961207,1.28140704 C52.1961207,0.572864322 51.6310345,0 50.9321121,0 L1.26400862,0 C0.565086207,0 0,0.572864322 0,1.28140704 L0,21.4824121 C0,22.1909548 0.565086207,22.7638191 1.26400862,22.7638191 L2.37931034,22.7638191 L2.37931034,25.2512563 C2.37931034,25.8693467 2.88491379,26.3819095 3.49461207,26.3819095 L12.0303879,26.3819095 C12.5359914,28.4623116 14.3799569,30 16.580819,30 C18.0084052,30 19.2872845,29.3517588 20.1497845,28.3266332 C21.0122845,29.3517588 22.2911638,30 23.71875,30 C25.9196121,30 27.7635776,28.4623116 28.269181,26.3819095 L39.5560345,26.3819095 C39.9426724,27.1055276 40.7010776,27.5879397 41.5784483,27.5879397 L47.5267241,27.5879397 C48.3892241,27.5879397 49.1476293,27.1055276 49.5491379,26.3819095 L52.5084052,26.3819095 C53.0140086,28.4623116 54.8579741,30 57.0588362,30 C59.2596983,30 61.1036638,28.4623116 61.6092672,26.3819095 L67.7657328,26.3819095 C68.375431,26.3819095 68.8810345,25.8693467 68.8810345,25.2512563 L68.8810345,16.8090452 C68.8512931,16.7035176 68.8364224,16.5829146 68.806681,16.4773869 Z M66.2340517,15.678392 L62.9773707,15.678392 C61.6241379,15.678392 60.5237069,14.5628141 60.5237069,13.1909548 L60.5237069,9.49748744 L64.4049569,9.49748744 L66.2340517,15.678392 Z M52.4786638,24.120603 L49.8168103,24.120603 L49.8168103,22.839196 C49.8168103,22.8090452 49.8168103,22.7939698 49.8168103,22.7638191 L51.080819,22.7638191 L53.04375,22.7638191 C52.7909483,23.1708543 52.5976293,23.638191 52.4786638,24.120603 Z M54.7241379,9.49748744 L54.7241379,20.5025126 L52.1961207,20.5025126 L52.1961207,9.49748744 L54.7241379,9.49748744 Z M39.2586207,22.839196 L39.2586207,24.120603 L28.269181,24.120603 C28.1502155,23.638191 27.9568966,23.1708543 27.7040948,22.7638191 L39.2586207,22.7638191 C39.2586207,22.7939698 39.2586207,22.8090452 39.2586207,22.839196 Z M4.60991379,22.7638191 L12.5954741,22.7638191 C12.3426724,23.1708543 12.1493534,23.638191 12.0303879,24.120603 L4.60991379,24.120603 L4.60991379,22.7638191 Z M16.580819,27.7386935 C15.2275862,27.7386935 14.1271552,26.6231156 14.1271552,25.2512563 C14.1271552,23.879397 15.2275862,22.7638191 16.580819,22.7638191 C17.9340517,22.7638191 19.0344828,23.879397 19.0344828,25.2512563 C19.0344828,26.6231156 17.9340517,27.7386935 16.580819,27.7386935 Z M23.71875,27.7386935 C22.3655172,27.7386935 21.2650862,26.6231156 21.2650862,25.2512563 C21.2650862,23.879397 22.3655172,22.7638191 23.71875,22.7638191 C25.0719828,22.7638191 26.1724138,23.879397 26.1724138,25.2512563 C26.1724138,26.6231156 25.0719828,27.7386935 23.71875,27.7386935 Z M47.5118534,25.3266332 L41.5635776,25.3266332 C41.5189655,25.3266332 41.4892241,25.2964824 41.4892241,25.2512563 L41.4892241,22.839196 C41.4892241,22.7939698 41.5189655,22.7638191 41.5635776,22.7638191 L47.5118534,22.7638191 C47.5564655,22.7638191 47.5862069,22.7939698 47.5862069,22.839196 L47.5862069,25.2512563 C47.5862069,25.2964824 47.5564655,25.3266332 47.5118534,25.3266332 Z M57.0290948,27.7386935 C55.6758621,27.7386935 54.575431,26.6231156 54.575431,25.2512563 C54.575431,23.879397 55.6758621,22.7638191 57.0290948,22.7638191 C58.3823276,22.7638191 59.4827586,23.879397 59.4827586,25.2512563 C59.4827586,26.6231156 58.3823276,27.7386935 57.0290948,27.7386935 Z M61.5795259,24.120603 C61.0739224,22.040201 59.2299569,20.5025126 57.0290948,20.5025126 C56.9993534,20.5025126 56.9844828,20.5025126 56.9547414,20.5025126 L56.9547414,5.87939698 L62.3974138,5.87939698 C62.9625,5.87939698 63.4532328,6.24120603 63.6019397,6.79899497 L63.7357759,7.2361809 L59.4084052,7.2361809 C58.7987069,7.2361809 58.2931034,7.74874372 58.2931034,8.36683417 L58.2931034,13.1909548 C58.2931034,15.8140704 60.3898707,17.9396985 62.9773707,17.9396985 L66.6206897,17.9396985 L66.6206897,19.2964824 L65.356681,19.2964824 C64.7469828,19.2964824 64.2413793,19.8090452 64.2413793,20.4271357 C64.2413793,21.0452261 64.7469828,21.5577889 65.356681,21.5577889 L66.6206897,21.5577889 L66.6206897,24.120603 L61.5795259,24.120603 Z M49.9655172,2.26130653 L49.9655172,20.5025126 L2.23060345,20.5025126 L2.23060345,18.8894472 L2.18599138,18.8894472 L2.18599138,6.52763819 L2.23060345,6.52763819 L2.23060345,2.26130653 L49.9655172,2.26130653 Z" id="Shape"></path>
                    </g>
                </g>
            </g>
        </g>
    </g>
</svg>